# This file uses centimeters as units for non-parametric coordinates.

mtllib BerryBush.mtl
g default
v 2.145155 1.529790 -3.128452
v 2.102682 2.745046 -0.634252
v 0.524799 3.496116 -2.980557
v -0.533417 1.529790 -4.554120
v 0.524799 -0.436536 -2.980557
v 2.102682 0.314534 -0.634252
v 0.456076 1.529790 1.055144
v -0.519109 3.496116 -0.394953
v -2.096993 2.745046 -2.741258
v -2.096993 0.314533 -2.741258
v -0.519109 -0.436536 -0.394953
v -2.139466 1.529790 -0.247058
v 2.001240 2.864366 -2.392461
v 0.930306 2.354603 -3.984937
v 0.930306 0.704976 -3.984937
v 2.001240 0.195214 -2.392463
v 2.663113 1.529790 -1.408259
v 0.883663 3.689180 -1.245842
v -0.849146 2.864366 -3.822520
v -0.849146 0.195213 -3.822520
v 0.883663 -0.629601 -1.245842
v 1.954597 1.529790 0.346632
v 0.854836 2.864367 0.447011
v -0.877973 3.689180 -2.129668
v -1.948907 1.529790 -3.722142
v -0.877973 -0.629601 -2.129667
v 0.854836 0.195213 0.447011
v -0.924616 2.354604 0.609427
v -1.995551 2.864366 -0.983048
v -2.657425 1.529790 -1.967251
v -1.995551 0.195213 -0.983047
v -0.924616 0.704976 0.609427
v 1.467483 1.416986 3.522533
v -0.712997 2.481673 3.961433
v 0.761288 3.139686 2.121608
v 1.750025 1.416986 0.887721
v 0.761288 -0.305713 2.121608
v -0.712997 0.352299 3.961433
v -2.766804 1.416986 2.831764
v -1.855645 3.139686 1.694689
v -0.381362 2.481673 -0.145136
v -0.381362 0.352299 -0.145135
v -1.855645 -0.305713 1.694689
v -2.561841 1.416986 0.293764
v 0.777217 2.586210 3.536164
v 1.777836 2.139606 2.287446
v 1.777836 0.694367 2.287446
v 0.777217 0.247763 3.536164
v 0.158800 1.416986 4.307915
v -0.616735 3.308830 2.769438
v 1.002303 2.586210 0.748971
v 1.002303 0.247763 0.748971
v -0.616735 -0.474857 2.769438
v -1.617354 1.416986 4.018157
v -2.096660 2.586210 3.067327
v -0.477624 3.308830 1.046858
v 0.522997 1.416986 -0.201860
v -0.477624 -0.474857 1.046858
v -2.096660 0.247763 3.067327
v -2.872195 2.139606 1.528852
v -1.871575 2.586210 0.280134
v -1.253158 1.416986 -0.491616
v -1.871575 0.247763 0.280133
v -2.872195 0.694367 1.528852
v 3.040006 1.416986 -2.499389
v 4.389954 2.481673 -0.478950
v 1.840622 3.139686 -1.421214
v 0.130898 1.416986 -2.053146
v 1.840622 -0.305713 -1.421212
v 4.389954 0.352299 -0.478950
v 4.024883 1.416986 1.847927
v 2.449309 3.139686 1.265575
v -0.100022 2.481673 0.323313
v -0.100022 0.352299 0.323313
v 2.449309 -0.305713 1.265576
v 1.249925 1.416986 2.343753
v 3.334449 2.586210 -1.825368
v 1.604177 2.139606 -2.464898
v 1.604177 0.694367 -2.464898
v 3.334448 0.247763 -1.825369
v 4.403815 1.416986 -1.430120
v 3.086669 3.308830 -0.246080
v 0.287031 2.586210 -1.280859
v 0.287031 0.247763 -1.280859
v 3.086669 -0.474857 -0.246080
v 4.816941 1.416986 0.393448
v 4.002900 2.586210 1.125224
v 1.203262 3.308830 0.090445
v -0.527010 1.416986 -0.549083
v 1.203262 -0.474857 0.090445
v 4.002900 0.247763 1.125224
v 2.685754 2.139606 2.309261
v 0.955482 2.586210 1.669733
v -0.113884 1.416986 1.274482
v 0.955482 0.247763 1.669733
v 2.685754 0.694367 2.309261
v 0.002844 3.856875 -1.906700
v 1.501856 4.658460 -0.761558
v -0.569727 5.153867 -0.761558
v -1.959046 3.856875 -0.761558
v -0.569727 2.559884 -0.761558
v 1.501856 3.055290 -0.761558
v 1.855724 3.856875 1.091322
v 0.575416 5.153867 1.091322
v -1.496167 4.658460 1.091322
v -1.496167 3.055290 1.091322
v 0.575416 2.559884 1.091322
v 0.002844 3.856875 2.236464
v 0.391458 4.737164 -1.481310
v -1.014558 4.400923 -1.481310
v -1.014558 3.312827 -1.481310
v 0.391458 2.976586 -1.481310
v 1.260423 3.856875 -1.481310
v 0.631634 5.281212 -0.223730
v -1.643348 4.737164 -0.223730
v -1.643348 2.976586 -0.223730
v 0.631634 2.432538 -0.223730
v 2.037650 3.856875 -0.223730
v 1.649037 4.737164 0.553494
v -0.625945 5.281212 0.553494
v -2.031961 3.856875 0.553494
v -0.625945 2.432538 0.553494
v 1.649037 2.976586 0.553494
v 1.020247 4.400924 1.811074
v -0.385769 4.737164 1.811074
v -1.254735 3.856875 1.811074
v -0.385769 2.976586 1.811074
v 1.020247 3.312827 1.811074
vt 0.469322 0.895210
vt 0.421910 0.953585
vt 0.467286 0.934831
vt 0.475573 0.931289
vt 0.385921 0.895209
vt 0.430865 0.919696
vt 0.421910 0.836834
vt 0.430865 0.870723
vt 0.475573 0.859133
vt 0.467286 0.855590
vt 0.489796 0.895211
vt 0.437729 0.959318
vt 0.398859 0.953587
vt 0.378798 0.934830
vt 0.345196 0.931288
vt 0.378798 0.855589
vt 0.345196 0.859132
vt 0.437729 0.831104
vt 0.398859 0.836836
vt 0.474151 0.895212
vt 0.432025 0.895212
vt 0.441972 0.934832
vt 0.383040 0.959318
vt 0.346618 0.895209
vt 0.383040 0.831103
vt 0.441972 0.855591
vt 0.389905 0.919699
vt 0.351447 0.895211
vt 0.353483 0.934832
vt 0.330973 0.895211
vt 0.353483 0.855591
vt 0.389905 0.870725
vt 0.127911 0.933035
vt 0.084076 0.984381
vt 0.126028 0.967884
vt 0.133690 0.964769
vt 0.050802 0.933035
vt 0.092355 0.954573
vt 0.084076 0.881691
vt 0.092355 0.911498
vt 0.133690 0.901304
vt 0.126028 0.898187
vt 0.146840 0.933036
vt 0.098701 0.989423
vt 0.062764 0.984382
vt 0.044216 0.967884
vt 0.013150 0.964769
vt 0.044216 0.898187
vt 0.013150 0.901303
vt 0.098701 0.876650
vt 0.062764 0.881692
vt 0.132375 0.933037
vt 0.093427 0.933038
vt 0.102624 0.967886
vt 0.048139 0.989423
vt 0.014465 0.933036
vt 0.048139 0.876650
vt 0.102624 0.898189
vt 0.054485 0.954575
vt 0.018929 0.933037
vt 0.020812 0.967886
vt 0.000000 0.933037
vt 0.020812 0.898188
vt 0.054485 0.911500
vt 0.888867 0.890341
vt 0.841231 0.942584
vt 0.886822 0.925800
vt 0.895148 0.922630
vt 0.805070 0.890341
vt 0.850227 0.912255
vt 0.841230 0.838099
vt 0.850227 0.868427
vt 0.895148 0.858054
vt 0.886822 0.854883
vt 0.909439 0.890342
vt 0.857125 0.947715
vt 0.818070 0.942586
vt 0.797913 0.925799
vt 0.764152 0.922630
vt 0.797913 0.854883
vt 0.764152 0.858054
vt 0.857124 0.832970
vt 0.818069 0.838100
vt 0.893719 0.890343
vt 0.851393 0.890343
vt 0.861387 0.925801
vt 0.802176 0.947715
vt 0.765581 0.890342
vt 0.802175 0.832970
vt 0.861387 0.854885
vt 0.809073 0.912258
vt 0.770433 0.890343
vt 0.772478 0.925801
vt 0.749861 0.890343
vt 0.772478 0.854885
vt 0.809073 0.868429
vt 0.983754 0.167194
vt 0.946134 0.206793
vt 0.982139 0.194070
vt 0.988714 0.191668
vt 0.917576 0.167194
vt 0.953239 0.183804
vt 0.946133 0.127597
vt 0.953238 0.150584
vt 0.988714 0.142722
vt 0.982139 0.140319
vt 1.000000 0.167195
vt 0.958686 0.210681
vt 0.927843 0.206794
vt 0.911924 0.194071
vt 0.885262 0.191668
vt 0.911924 0.140319
vt 0.885262 0.142722
vt 0.958685 0.123709
vt 0.927842 0.127598
vt 0.987586 0.167196
vt 0.954159 0.167196
vt 0.962052 0.194072
vt 0.915291 0.210681
vt 0.886390 0.167195
vt 0.915290 0.123709
vt 0.962052 0.140320
vt 0.920738 0.183807
vt 0.890222 0.167196
vt 0.891838 0.194072
vt 0.873976 0.167196
vt 0.891837 0.140320
vt 0.920738 0.150586
vn 0.605938 0.543048 -0.581324
vn 0.605938 0.543048 -0.581324
vn 0.491488 0.460604 -0.739110
vn 0.531612 0.842420 -0.087843
vn 0.531612 0.842420 -0.087843
vn 0.379261 0.924388 0.040851
vn 0.925591 0.346250 -0.152943
vn 0.925591 0.346250 -0.152943
vn 0.989915 0.133258 -0.048071
vn 0.469843 -0.000000 -0.882750
vn 0.469843 -0.000000 -0.882750
vn 0.458420 -0.219164 -0.861289
vn 0.093652 0.590860 -0.801320
vn 0.090117 0.592260 -0.800692
vn -0.067801 0.645368 -0.760857
vn 0.605938 0.543048 -0.581324
vn 0.605938 0.543048 -0.581324
vn 0.691274 0.599939 -0.402757
vn 0.605937 -0.543048 -0.581325
vn 0.605937 -0.543048 -0.581325
vn 0.691274 -0.599939 -0.402757
vn 0.090118 -0.592260 -0.800692
vn 0.093652 -0.590860 -0.801320
vn -0.067801 -0.645368 -0.760857
vn 0.469843 -0.000000 -0.882750
vn 0.469843 -0.000000 -0.882750
vn 0.458420 0.219164 -0.861289
vn 0.925592 -0.346250 -0.152943
vn 0.925591 -0.346250 -0.152943
vn 0.989915 -0.133258 -0.048071
vn 0.531612 -0.842420 -0.087843
vn 0.531612 -0.842421 -0.087843
vn 0.379261 -0.924388 0.040851
vn 0.605937 -0.543048 -0.581325
vn 0.605937 -0.543048 -0.581325
vn 0.491487 -0.460603 -0.739111
vn 0.925591 0.346250 -0.152943
vn 0.925591 0.346250 -0.152943
vn 0.811910 0.530128 -0.244470
vn 0.927277 0.000000 0.374377
vn 0.927277 0.000000 0.374377
vn 0.809971 0.000000 0.586471
vn 0.925591 -0.346250 -0.152943
vn 0.925592 -0.346250 -0.152943
vn 0.811910 -0.530128 -0.244470
vn 0.531612 0.842420 -0.087843
vn 0.531612 0.842420 -0.087843
vn 0.663449 0.716080 -0.216945
vn 0.000000 1.000000 0.000000
vn 0.000000 1.000000 0.000000
vn -0.178846 0.981224 -0.072207
vn 0.284979 0.859774 0.423763
vn 0.284979 0.859774 0.423763
vn 0.268910 0.743685 0.612063
vn 0.090117 0.592260 -0.800692
vn 0.093652 0.590860 -0.801320
vn 0.265945 0.511006 -0.817402
vn -0.548325 0.394489 -0.737372
vn -0.549847 0.392458 -0.737323
vn -0.648487 0.242195 -0.721669
vn -0.284979 0.859774 -0.423763
vn -0.284979 0.859774 -0.423763
vn -0.287335 0.930060 -0.228968
vn 0.093652 -0.590860 -0.801320
vn 0.090118 -0.592260 -0.800692
vn 0.265946 -0.511006 -0.817402
vn -0.284979 -0.859774 -0.423763
vn -0.284979 -0.859774 -0.423763
vn -0.287335 -0.930060 -0.228968
vn -0.549847 -0.392458 -0.737323
vn -0.548325 -0.394489 -0.737372
vn -0.648487 -0.242195 -0.721669
vn 0.531612 -0.842421 -0.087843
vn 0.531612 -0.842420 -0.087843
vn 0.663449 -0.716080 -0.216945
vn 0.284979 -0.859774 0.423763
vn 0.284979 -0.859774 0.423763
vn 0.268909 -0.743685 0.612063
vn 0.000000 -1.000000 0.000000
vn -0.000000 -1.000000 -0.000000
vn -0.178846 -0.981224 -0.072207
vn 0.927277 0.000000 0.374377
vn 0.927277 0.000000 0.374377
vn 0.988795 0.000000 0.149280
vn 0.518588 0.369343 0.771137
vn 0.518588 0.369343 0.771137
vn 0.353854 0.560954 0.748410
vn 0.518588 -0.369343 0.771137
vn 0.518588 -0.369343 0.771137
vn 0.353854 -0.560954 0.748410
vn 0.284979 0.859774 0.423763
vn 0.284979 0.859774 0.423763
vn 0.287335 0.930061 0.228968
vn -0.086339 0.563218 0.821785
vn -0.086339 0.563218 0.821785
vn -0.295360 0.467830 0.833005
vn 0.518588 0.369343 0.771137
vn 0.518588 0.369343 0.771137
vn 0.655952 0.141826 0.741359
vn -0.284979 0.859774 -0.423763
vn -0.284979 0.859774 -0.423763
vn -0.268910 0.743684 -0.612063
vn -0.531612 0.842420 0.087843
vn -0.531612 0.842421 0.087843
vn -0.663449 0.716080 0.216945
vn 0.000000 1.000000 0.000000
vn 0.000000 1.000000 0.000000
vn 0.178846 0.981224 0.072207
vn -0.548325 -0.394489 -0.737372
vn -0.549847 -0.392458 -0.737323
vn -0.427938 -0.535514 -0.728075
vn -0.927276 0.000000 -0.374377
vn -0.927276 0.000000 -0.374377
vn -0.988795 0.000000 -0.149280
vn -0.549847 0.392458 -0.737323
vn -0.548325 0.394489 -0.737372
vn -0.427938 0.535514 -0.728076
vn -0.000000 -1.000000 -0.000000
vn 0.000000 -1.000000 0.000000
vn 0.178846 -0.981224 0.072207
vn -0.531612 -0.842421 0.087843
vn -0.531612 -0.842421 0.087843
vn -0.663449 -0.716080 0.216945
vn -0.284979 -0.859774 -0.423763
vn -0.284979 -0.859774 -0.423763
vn -0.268909 -0.743685 -0.612063
vn 0.518588 -0.369343 0.771137
vn 0.518588 -0.369343 0.771137
vn 0.655952 -0.141826 0.741359
vn -0.086339 -0.563218 0.821785
vn -0.086339 -0.563218 0.821785
vn -0.295360 -0.467830 0.833005
vn 0.284979 -0.859774 0.423763
vn 0.284979 -0.859774 0.423763
vn 0.287335 -0.930061 0.228968
vn -0.086339 0.563218 0.821785
vn -0.086339 0.563218 0.821785
vn 0.128272 0.629042 0.766716
vn -0.605938 0.543048 0.581324
vn -0.605938 0.543049 0.581324
vn -0.691274 0.599939 0.402757
vn -0.448434 -0.000000 0.893816
vn -0.448434 -0.000000 0.893816
vn -0.433186 -0.258549 0.863425
vn -0.531612 0.842421 0.087843
vn -0.531612 0.842420 0.087843
vn -0.379261 0.924388 -0.040851
vn -0.925591 0.346251 0.152943
vn -0.925591 0.346250 0.152943
vn -0.989915 0.133258 0.048071
vn -0.605938 0.543049 0.581324
vn -0.605938 0.543048 0.581324
vn -0.491488 0.460603 0.739110
vn -0.927276 0.000000 -0.374377
vn -0.927276 0.000000 -0.374377
vn -0.809970 0.000000 -0.586472
vn -0.925591 -0.346250 0.152943
vn -0.925591 -0.346250 0.152943
vn -0.811910 -0.530128 0.244471
vn -0.925591 0.346250 0.152943
vn -0.925591 0.346251 0.152943
vn -0.811910 0.530128 0.244471
vn -0.531612 -0.842421 0.087843
vn -0.531612 -0.842421 0.087843
vn -0.379261 -0.924388 -0.040851
vn -0.605937 -0.543048 0.581325
vn -0.605937 -0.543048 0.581325
vn -0.491488 -0.460603 0.739111
vn -0.925591 -0.346250 0.152943
vn -0.925591 -0.346250 0.152943
vn -0.989915 -0.133258 0.048071
vn -0.086339 -0.563218 0.821785
vn -0.086339 -0.563218 0.821785
vn 0.128272 -0.629042 0.766716
vn -0.448434 -0.000000 0.893816
vn -0.448434 -0.000000 0.893816
vn -0.433186 0.258549 0.863425
vn -0.605937 -0.543048 0.581325
vn -0.605937 -0.543048 0.581325
vn -0.691274 -0.599939 0.402757
vn 0.719152 0.591423 0.364746
vn 0.719152 0.591423 0.364746
vn 0.847163 0.497974 0.185303
vn 0.193038 0.864596 0.463907
vn 0.193037 0.864596 0.463907
vn 0.038510 0.930709 0.363727
vn 0.355936 0.376340 0.855382
vn 0.355936 0.376340 0.855382
vn 0.262238 0.143691 0.954245
vn 0.994300 -0.000000 0.106623
vn 0.994300 -0.000000 0.106623
vn 0.965783 -0.237776 0.103565
vn 0.771107 0.598389 -0.217541
vn 0.769411 0.599504 -0.220457
vn 0.686368 0.640571 -0.344338
vn 0.719152 0.591423 0.364746
vn 0.719152 0.591423 0.364746
vn 0.554620 0.649919 0.519617
vn 0.719152 -0.591423 0.364746
vn 0.719151 -0.591423 0.364746
vn 0.554620 -0.649919 0.519617
vn 0.769412 -0.599504 -0.220457
vn 0.771107 -0.598389 -0.217541
vn 0.686368 -0.640571 -0.344338
vn 0.994300 -0.000000 0.106623
vn 0.994300 -0.000000 0.106623
vn 0.965783 0.237776 0.103565
vn 0.355936 -0.376340 0.855382
vn 0.355936 -0.376340 0.855382
vn 0.262238 -0.143691 0.954245
vn 0.193038 -0.864596 0.463907
vn 0.193038 -0.864596 0.463907
vn 0.038511 -0.930709 0.363727
vn 0.719151 -0.591423 0.364746
vn 0.719152 -0.591423 0.364746
vn 0.847163 -0.497974 0.185303
vn 0.355936 0.376340 0.855382
vn 0.355936 0.376340 0.855382
vn 0.421482 0.573677 0.702316
vn -0.161010 0.000000 0.986953
vn -0.161010 0.000000 0.986953
vn -0.369334 0.000000 0.929297
vn 0.355936 -0.376340 0.855382
vn 0.355936 -0.376340 0.855382
vn 0.421482 -0.573677 0.702316
vn 0.193037 0.864596 0.463907
vn 0.193038 0.864596 0.463907
vn 0.352474 0.755270 0.552566
vn -0.000000 1.000000 0.000000
vn -0.000000 1.000000 0.000000
vn 0.031028 0.981255 -0.190198
vn -0.331070 0.848348 0.413156
vn -0.331070 0.848348 0.413156
vn -0.502865 0.728628 0.465003
vn 0.769411 0.599504 -0.220457
vn 0.771107 0.598389 -0.217541
vn 0.844160 0.531978 -0.066283
vn 0.549851 0.378344 -0.744660
vn 0.549483 0.376374 -0.745930
vn 0.515539 0.231797 -0.824918
vn 0.331070 0.848348 -0.413157
vn 0.331070 0.848348 -0.413157
vn 0.153773 0.925482 -0.346174
vn 0.771107 -0.598389 -0.217541
vn 0.769412 -0.599504 -0.220457
vn 0.844160 -0.531978 -0.066282
vn 0.331070 -0.848348 -0.413157
vn 0.331070 -0.848348 -0.413157
vn 0.153772 -0.925483 -0.346174
vn 0.549482 -0.376374 -0.745930
vn 0.549851 -0.378344 -0.744660
vn 0.515539 -0.231797 -0.824918
vn 0.193038 -0.864596 0.463907
vn 0.193038 -0.864596 0.463907
vn 0.352474 -0.755270 0.552566
vn -0.331070 -0.848348 0.413156
vn -0.331070 -0.848348 0.413156
vn -0.502865 -0.728628 0.465003
vn -0.000000 -1.000000 0.000000
vn -0.000000 -1.000000 0.000000
vn 0.031028 -0.981255 -0.190198
vn -0.161010 0.000000 0.986953
vn -0.161010 0.000000 0.986953
vn 0.062599 0.000000 0.998039
vn -0.584877 0.353799 0.729894
vn -0.584877 0.353799 0.729894
vn -0.602963 0.543287 0.584187
vn -0.584877 -0.353799 0.729894
vn -0.584877 -0.353799 0.729894
vn -0.602963 -0.543288 0.584187
vn -0.331070 0.848348 0.413156
vn -0.331070 0.848348 0.413156
vn -0.153772 0.925483 0.346173
vn -0.788255 0.569982 0.231894
vn -0.788255 0.569982 0.231894
vn -0.870590 0.489974 0.044705
vn -0.584877 0.353799 0.729894
vn -0.584877 0.353799 0.729894
vn -0.530493 0.135464 0.836796
vn 0.331070 0.848348 -0.413157
vn 0.331070 0.848348 -0.413157
vn 0.502865 0.728627 -0.465004
vn -0.193038 0.864596 -0.463907
vn -0.193038 0.864596 -0.463907
vn -0.352476 0.755269 -0.552566
vn -0.000000 1.000000 0.000000
vn -0.000000 1.000000 0.000000
vn -0.031028 0.981255 0.190197
vn 0.549851 -0.378344 -0.744660
vn 0.549482 -0.376374 -0.745930
vn 0.568399 -0.516909 -0.640100
vn 0.161008 -0.000001 -0.986953
vn 0.161008 -0.000001 -0.986953
vn -0.062600 -0.000001 -0.998039
vn 0.549483 0.376374 -0.745930
vn 0.549851 0.378344 -0.744660
vn 0.568399 0.516908 -0.640100
vn -0.000000 -1.000000 0.000000
vn -0.000000 -1.000000 0.000000
vn -0.031028 -0.981255 0.190198
vn -0.193038 -0.864596 -0.463907
vn -0.193038 -0.864596 -0.463907
vn -0.352476 -0.755269 -0.552567
vn 0.331070 -0.848348 -0.413157
vn 0.331070 -0.848348 -0.413157
vn 0.502866 -0.728627 -0.465004
vn -0.584877 -0.353799 0.729894
vn -0.584877 -0.353799 0.729894
vn -0.530493 -0.135464 0.836796
vn -0.788255 -0.569981 0.231894
vn -0.788255 -0.569982 0.231894
vn -0.870590 -0.489974 0.044705
vn -0.331070 -0.848348 0.413156
vn -0.331070 -0.848348 0.413156
vn -0.153772 -0.925483 0.346173
vn -0.788255 0.569982 0.231894
vn -0.788255 0.569982 0.231894
vn -0.675384 0.620391 0.398712
vn -0.719151 0.591423 -0.364747
vn -0.719151 0.591423 -0.364746
vn -0.554620 0.649919 -0.519617
vn -0.996755 -0.000000 -0.080495
vn -0.996755 -0.000000 -0.080495
vn -0.957182 -0.278976 -0.077300
vn -0.193038 0.864596 -0.463907
vn -0.193038 0.864596 -0.463907
vn -0.038510 0.930709 -0.363727
vn -0.355936 0.376339 -0.855382
vn -0.355936 0.376339 -0.855382
vn -0.262238 0.143691 -0.954245
vn -0.719151 0.591423 -0.364746
vn -0.719151 0.591423 -0.364747
vn -0.847163 0.497973 -0.185303
vn 0.161008 -0.000001 -0.986953
vn 0.161008 -0.000001 -0.986953
vn 0.369334 -0.000001 -0.929297
vn -0.355935 -0.376339 -0.855382
vn -0.355935 -0.376339 -0.855382
vn -0.421482 -0.573677 -0.702317
vn -0.355936 0.376339 -0.855382
vn -0.355936 0.376339 -0.855382
vn -0.421482 0.573676 -0.702317
vn -0.193038 -0.864596 -0.463907
vn -0.193038 -0.864596 -0.463907
vn -0.038510 -0.930709 -0.363727
vn -0.719152 -0.591423 -0.364746
vn -0.719152 -0.591423 -0.364746
vn -0.847163 -0.497973 -0.185302
vn -0.355935 -0.376339 -0.855382
vn -0.355935 -0.376339 -0.855382
vn -0.262237 -0.143690 -0.954246
vn -0.788255 -0.569982 0.231894
vn -0.788255 -0.569981 0.231894
vn -0.675384 -0.620391 0.398712
vn -0.996755 -0.000000 -0.080495
vn -0.996755 -0.000000 -0.080495
vn -0.957182 0.278975 -0.077300
vn -0.719152 -0.591423 -0.364746
vn -0.719152 -0.591423 -0.364746
vn -0.554620 -0.649919 -0.519617
vn 0.139804 0.593427 -0.792653
vn 0.139804 0.593427 -0.792653
vn -0.044837 0.507376 -0.860558
vn 0.351680 0.870895 -0.343311
vn 0.351680 0.870895 -0.343311
vn 0.303168 0.938580 -0.164792
vn 0.660138 0.385914 -0.644429
vn 0.660138 0.385914 -0.644429
vn 0.783708 0.150091 -0.602723
vn -0.151622 -0.000000 -0.988439
vn -0.151622 0.000000 -0.988439
vn -0.146952 -0.246265 -0.957997
vn -0.390097 0.632591 -0.669069
vn -0.392381 0.633909 -0.666481
vn -0.487122 0.683071 -0.544176
vn 0.139804 0.593427 -0.792653
vn 0.139804 0.593427 -0.792653
vn 0.310572 0.650196 -0.693391
vn 0.139804 -0.593428 -0.792653
vn 0.139804 -0.593428 -0.792653
vn 0.310573 -0.650196 -0.693390
vn -0.392381 -0.633909 -0.666481
vn -0.390097 -0.632591 -0.669069
vn -0.487122 -0.683071 -0.544175
vn -0.151622 0.000000 -0.988439
vn -0.151622 -0.000000 -0.988439
vn -0.146952 0.246265 -0.957997
vn 0.660138 -0.385914 -0.644429
vn 0.660138 -0.385914 -0.644429
vn 0.783708 -0.150092 -0.602723
vn 0.351680 -0.870895 -0.343311
vn 0.351680 -0.870895 -0.343311
vn 0.303168 -0.938580 -0.164792
vn 0.139804 -0.593428 -0.792653
vn 0.139804 -0.593428 -0.792653
vn -0.044838 -0.507376 -0.860558
vn 0.660138 0.385914 -0.644429
vn 0.660138 0.385914 -0.644429
vn 0.502835 0.579512 -0.641345
vn 0.975285 0.000000 -0.220949
vn 0.975285 0.000000 -0.220949
vn 0.999894 0.000000 0.014572
vn 0.660138 -0.385914 -0.644429
vn 0.660138 -0.385914 -0.644429
vn 0.502835 -0.579512 -0.641345
vn 0.351680 0.870895 -0.343311
vn 0.351680 0.870895 -0.343311
vn 0.388809 0.759458 -0.521585
vn 0.000000 1.000000 0.000000
vn 0.000000 1.000000 0.000000
vn -0.169985 0.984694 0.038510
vn 0.446549 0.879405 0.165050
vn 0.446549 0.879405 0.165049
vn 0.547918 0.773892 0.317612
vn -0.392381 0.633909 -0.666481
vn -0.390097 0.632591 -0.669069
vn -0.269004 0.555578 -0.786747
vn -0.861947 0.426146 -0.274675
vn -0.863257 0.424021 -0.273850
vn -0.941314 0.264336 -0.209893
vn -0.446549 0.879405 -0.165050
vn -0.446549 0.879405 -0.165050
vn -0.337132 0.941245 -0.020006
vn -0.390097 -0.632591 -0.669069
vn -0.392381 -0.633909 -0.666481
vn -0.269003 -0.555577 -0.786747
vn -0.446549 -0.879405 -0.165050
vn -0.446549 -0.879405 -0.165049
vn -0.337131 -0.941245 -0.020006
vn -0.863257 -0.424021 -0.273850
vn -0.861947 -0.426146 -0.274675
vn -0.941314 -0.264335 -0.209893
vn 0.351680 -0.870895 -0.343311
vn 0.351680 -0.870895 -0.343311
vn 0.388809 -0.759458 -0.521586
vn 0.446549 -0.879405 0.165050
vn 0.446549 -0.879405 0.165050
vn 0.547918 -0.773892 0.317612
vn -0.000000 -1.000000 0.000000
vn 0.000000 -1.000000 0.000000
vn -0.169985 -0.984694 0.038510
vn 0.975285 0.000000 -0.220949
vn 0.975285 0.000000 -0.220949
vn 0.898188 0.000000 -0.439611
vn 0.859791 0.399714 0.317788
vn 0.859791 0.399714 0.317788
vn 0.704576 0.596957 0.383687
vn 0.859791 -0.399714 0.317788
vn 0.859791 -0.399714 0.317788
vn 0.704576 -0.596957 0.383687
vn 0.446549 0.879405 0.165049
vn 0.446549 0.879405 0.165050
vn 0.337131 0.941245 0.020006
vn 0.408986 0.604997 0.683161
vn 0.408986 0.604997 0.683161
vn 0.256373 0.511686 0.820031
vn 0.859791 0.399714 0.317788
vn 0.859791 0.399714 0.317788
vn 0.962558 0.155390 0.222119
vn -0.446549 0.879405 -0.165050
vn -0.446549 0.879405 -0.165050
vn -0.547917 0.773893 -0.317611
vn -0.351680 0.870895 0.343311
vn -0.351680 0.870895 0.343311
vn -0.388809 0.759457 0.521587
vn 0.000000 1.000000 0.000000
vn 0.000000 1.000000 0.000000
vn 0.169985 0.984694 -0.038510
vn -0.861947 -0.426146 -0.274675
vn -0.863257 -0.424021 -0.273850
vn -0.752044 -0.571152 -0.328960
vn -0.975285 0.000000 0.220949
vn -0.975285 0.000000 0.220949
vn -0.898188 0.000000 0.439612
vn -0.863257 0.424021 -0.273850
vn -0.861947 0.426146 -0.274675
vn -0.752044 0.571152 -0.328960
vn 0.000000 -1.000000 0.000000
vn -0.000000 -1.000000 0.000000
vn 0.169985 -0.984694 -0.038510
vn -0.351680 -0.870895 0.343311
vn -0.351680 -0.870895 0.343311
vn -0.388809 -0.759457 0.521586
vn -0.446549 -0.879405 -0.165049
vn -0.446549 -0.879405 -0.165050
vn -0.547917 -0.773892 -0.317611
vn 0.859791 -0.399714 0.317788
vn 0.859791 -0.399714 0.317788
vn 0.962558 -0.155390 0.222119
vn 0.408986 -0.604997 0.683161
vn 0.408986 -0.604997 0.683161
vn 0.256373 -0.511686 0.820031
vn 0.446549 -0.879405 0.165050
vn 0.446549 -0.879405 0.165050
vn 0.337131 -0.941245 0.020006
vn 0.408986 0.604997 0.683161
vn 0.408986 0.604997 0.683161
vn 0.537581 0.666343 0.516715
vn -0.139803 0.593428 0.792653
vn -0.139803 0.593428 0.792653
vn -0.310572 0.650196 0.693390
vn 0.175893 -0.000000 0.984409
vn 0.175893 -0.000000 0.984409
vn 0.168358 -0.289549 0.942240
vn -0.351680 0.870895 0.343311
vn -0.351680 0.870895 0.343311
vn -0.303168 0.938580 0.164791
vn -0.660138 0.385914 0.644428
vn -0.660138 0.385914 0.644428
vn -0.783708 0.150091 0.602722
vn -0.139803 0.593428 0.792653
vn -0.139803 0.593428 0.792653
vn 0.044838 0.507376 0.860558
vn -0.975285 0.000000 0.220949
vn -0.975285 0.000000 0.220949
vn -0.999894 0.000000 -0.014573
vn -0.660138 -0.385914 0.644428
vn -0.660138 -0.385914 0.644428
vn -0.502835 -0.579511 0.641345
vn -0.660138 0.385914 0.644428
vn -0.660138 0.385914 0.644428
vn -0.502835 0.579511 0.641345
vn -0.351680 -0.870895 0.343311
vn -0.351680 -0.870895 0.343311
vn -0.303168 -0.938580 0.164792
vn -0.139803 -0.593428 0.792653
vn -0.139803 -0.593428 0.792653
vn 0.044838 -0.507376 0.860558
vn -0.660138 -0.385914 0.644428
vn -0.660138 -0.385914 0.644428
vn -0.783708 -0.150091 0.602722
vn 0.408986 -0.604997 0.683161
vn 0.408986 -0.604997 0.683161
vn 0.537581 -0.666342 0.516715
vn 0.175893 -0.000000 0.984409
vn 0.175893 -0.000000 0.984409
vn 0.168358 0.289549 0.942240
vn -0.139803 -0.593428 0.792653
vn -0.139803 -0.593428 0.792653
vn -0.310572 -0.650196 0.693390
vn -0.147599 0.617198 -0.772840
vn -0.147599 0.617198 -0.772840
vn -0.350136 0.528343 -0.773472
vn 0.210886 0.881836 -0.421772
vn 0.210886 0.881836 -0.421772
vn 0.225510 0.942986 -0.244790
vn 0.409120 0.403858 -0.818242
vn 0.409120 0.403858 -0.818242
vn 0.544974 0.157386 -0.823549
vn -0.504103 0.000000 -0.863644
vn -0.504103 0.000000 -0.863644
vn -0.486990 -0.258344 -0.834325
vn -0.602005 0.644859 -0.470900
vn -0.603152 0.646088 -0.467737
vn -0.645498 0.691448 -0.324395
vn -0.147599 0.617198 -0.772840
vn -0.147599 0.617198 -0.772840
vn 0.052123 0.673793 -0.737079
vn -0.147599 -0.617198 -0.772840
vn -0.147599 -0.617198 -0.772840
vn 0.052124 -0.673793 -0.737079
vn -0.603152 -0.646088 -0.467737
vn -0.602005 -0.644859 -0.470900
vn -0.645498 -0.691448 -0.324394
vn -0.504103 0.000000 -0.863644
vn -0.504103 0.000000 -0.863644
vn -0.486990 0.258344 -0.834326
vn 0.409120 -0.403858 -0.818242
vn 0.409120 -0.403858 -0.818242
vn 0.544974 -0.157386 -0.823549
vn 0.210886 -0.881837 -0.421772
vn 0.210886 -0.881836 -0.421772
vn 0.225509 -0.942986 -0.244790
vn -0.147599 -0.617198 -0.772840
vn -0.147599 -0.617198 -0.772840
vn -0.350137 -0.528343 -0.773472
vn 0.409120 0.403858 -0.818242
vn 0.409120 0.403858 -0.818242
vn 0.255841 0.602072 -0.756343
vn 0.850651 -0.000000 -0.525731
vn 0.850651 -0.000000 -0.525731
vn 0.948083 -0.000000 -0.318023
vn 0.409120 -0.403858 -0.818242
vn 0.409120 -0.403858 -0.818242
vn 0.255841 -0.602072 -0.756343
vn 0.210886 0.881836 -0.421772
vn 0.210886 0.881836 -0.421772
vn 0.186085 0.778129 -0.599907
vn 0.000000 1.000000 -0.000000
vn -0.000000 1.000000 -0.000000
vn -0.144421 0.985483 0.089257
vn 0.471556 0.881836 0.000000
vn 0.471555 0.881836 -0.000000
vn 0.619793 0.778128 0.101848
vn -0.603152 0.646088 -0.467737
vn -0.602005 0.644859 -0.470900
vn -0.533941 0.571949 -0.622721
vn -0.901754 0.430484 0.039038
vn -0.902719 0.428348 0.040203
vn -0.955652 0.267594 0.122972
vn -0.471556 0.881836 -0.000000
vn -0.471556 0.881836 -0.000000
vn -0.319799 0.942986 0.092228
vn -0.602005 -0.644859 -0.470900
vn -0.603152 -0.646088 -0.467737
vn -0.533940 -0.571949 -0.622721
vn -0.471555 -0.881837 -0.000000
vn -0.471555 -0.881837 0.000000
vn -0.319798 -0.942986 0.092228
vn -0.902719 -0.428348 0.040203
vn -0.901754 -0.430484 0.039038
vn -0.955652 -0.267594 0.122972
vn 0.210886 -0.881836 -0.421772
vn 0.210886 -0.881837 -0.421772
vn 0.186085 -0.778129 -0.599907
vn 0.471555 -0.881837 -0.000000
vn 0.471555 -0.881836 -0.000000
vn 0.619793 -0.778128 0.101848
vn -0.000000 -1.000000 0.000000
vn 0.000000 -1.000000 0.000000
vn -0.144421 -0.985482 0.089258
vn 0.850651 -0.000000 -0.525731
vn 0.850651 -0.000000 -0.525731
vn 0.708445 -0.000000 -0.705766
vn 0.914822 0.403858 -0.000000
vn 0.914822 0.403858 -0.000000
vn 0.790909 0.602072 0.109415
vn 0.914822 -0.403858 0.000000
vn 0.914822 -0.403858 -0.000000
vn 0.790910 -0.602072 0.109415
vn 0.471555 0.881836 -0.000000
vn 0.471556 0.881836 0.000000
vn 0.319798 0.942986 -0.092228
vn 0.625241 0.617198 0.477641
vn 0.625240 0.617198 0.477641
vn 0.535228 0.528344 0.659078
vn 0.914822 0.403858 -0.000000
vn 0.914822 0.403858 -0.000000
vn 0.980324 0.157386 -0.119138
vn -0.471556 0.881836 -0.000000
vn -0.471556 0.881836 -0.000000
vn -0.619794 0.778128 -0.101848
vn -0.210886 0.881836 0.421772
vn -0.210886 0.881836 0.421772
vn -0.186085 0.778128 0.599907
vn -0.000000 1.000000 -0.000000
vn 0.000000 1.000000 -0.000000
vn 0.144421 0.985482 -0.089257
vn -0.901754 -0.430484 0.039038
vn -0.902719 -0.428348 0.040203
vn -0.816231 -0.575950 -0.045258
vn -0.850651 -0.000000 0.525731
vn -0.850651 -0.000000 0.525731
vn -0.708445 -0.000000 0.705767
vn -0.902719 0.428348 0.040203
vn -0.901754 0.430484 0.039038
vn -0.816231 0.575950 -0.045257
vn 0.000000 -1.000000 0.000000
vn -0.000000 -1.000000 0.000000
vn 0.144421 -0.985482 -0.089257
vn -0.210886 -0.881837 0.421772
vn -0.210886 -0.881837 0.421772
vn -0.186085 -0.778129 0.599907
vn -0.471555 -0.881837 0.000000
vn -0.471555 -0.881837 -0.000000
vn -0.619793 -0.778128 -0.101847
vn 0.914822 -0.403858 -0.000000
vn 0.914822 -0.403858 0.000000
vn 0.980324 -0.157387 -0.119138
vn 0.625240 -0.617198 0.477641
vn 0.625240 -0.617198 0.477641
vn 0.535228 -0.528344 0.659078
vn 0.471555 -0.881836 -0.000000
vn 0.471555 -0.881837 -0.000000
vn 0.319798 -0.942986 -0.092228
vn 0.625240 0.617198 0.477641
vn 0.625241 0.617198 0.477641
vn 0.682574 0.673794 0.283012
vn 0.147599 0.617198 0.772840
vn 0.147599 0.617198 0.772840
vn -0.052123 0.673793 0.737079
vn 0.525731 0.000000 0.850651
vn 0.525731 0.000000 0.850651
vn 0.501005 -0.303069 0.810644
vn -0.210886 0.881836 0.421772
vn -0.210886 0.881836 0.421772
vn -0.225510 0.942986 0.244790
vn -0.409120 0.403858 0.818242
vn -0.409120 0.403858 0.818242
vn -0.544974 0.157386 0.823549
vn 0.147599 0.617198 0.772840
vn 0.147599 0.617198 0.772840
vn 0.350137 0.528343 0.773471
vn -0.850651 -0.000000 0.525731
vn -0.850651 -0.000000 0.525731
vn -0.948083 -0.000000 0.318023
vn -0.409120 -0.403858 0.818242
vn -0.409120 -0.403858 0.818242
vn -0.255841 -0.602071 0.756343
vn -0.409120 0.403858 0.818242
vn -0.409120 0.403858 0.818242
vn -0.255841 0.602072 0.756343
vn -0.210886 -0.881837 0.421772
vn -0.210886 -0.881837 0.421772
vn -0.225509 -0.942986 0.244791
vn 0.147599 -0.617198 0.772840
vn 0.147599 -0.617198 0.772840
vn 0.350137 -0.528343 0.773472
vn -0.409120 -0.403858 0.818242
vn -0.409120 -0.403858 0.818242
vn -0.544974 -0.157386 0.823549
vn 0.625240 -0.617198 0.477641
vn 0.625240 -0.617198 0.477641
vn 0.682574 -0.673794 0.283012
vn 0.525731 0.000000 0.850651
vn 0.525731 0.000000 0.850651
vn 0.501005 0.303069 0.810644
vn 0.147599 -0.617198 0.772840
vn 0.147599 -0.617198 0.772840
vn -0.052123 -0.673793 0.737079
s off
g pPlatonic5 bush flora
usemtl pPlatonic5SG
f 1/1/1 3/2/2 13/3/3
f 3/2/4 2/4/5 13/3/6
f 2/4/7 1/1/8 13/3/9
f 1/1/10 4/5/11 14/6/12
f 4/5/13 3/2/14 14/6/15
f 3/2/16 1/1/17 14/6/18
f 1/1/19 5/7/20 15/8/21
f 5/7/22 4/5/23 15/8/24
f 4/5/25 1/1/26 15/8/27
f 1/1/28 6/9/29 16/10/30
f 6/9/31 5/7/32 16/10/33
f 5/7/34 1/1/35 16/10/36
f 1/1/37 2/4/38 17/11/39
f 2/4/40 6/9/41 17/11/42
f 6/9/43 1/1/44 17/11/45
f 2/4/46 3/2/47 18/12/48
f 3/2/49 8/13/50 18/12/51
f 8/13/52 2/4/53 18/12/54
f 3/2/55 4/5/56 19/14/57
f 4/5/58 9/15/59 19/14/60
f 9/15/61 3/2/62 19/14/63
f 4/5/64 5/7/65 20/16/66
f 5/7/67 10/17/68 20/16/69
f 10/17/70 4/5/71 20/16/72
f 5/7/73 6/9/74 21/18/75
f 6/9/76 11/19/77 21/18/78
f 11/19/79 5/7/80 21/18/81
f 6/9/82 2/4/83 22/20/84
f 2/4/85 7/21/86 22/20/87
f 7/21/88 6/9/89 22/20/90
f 2/4/91 8/13/92 23/22/93
f 8/13/94 7/21/95 23/22/96
f 7/21/97 2/4/98 23/22/99
f 3/2/100 9/15/101 24/23/102
f 9/15/103 8/13/104 24/23/105
f 8/13/106 3/2/107 24/23/108
f 4/5/109 10/17/110 25/24/111
f 10/17/112 9/15/113 25/24/114
f 9/15/115 4/5/116 25/24/117
f 5/7/118 11/19/119 26/25/120
f 11/19/121 10/17/122 26/25/123
f 10/17/124 5/7/125 26/25/126
f 6/9/127 7/21/128 27/26/129
f 7/21/130 11/19/131 27/26/132
f 11/19/133 6/9/134 27/26/135
f 7/21/136 8/13/137 28/27/138
f 8/13/139 12/28/140 28/27/141
f 12/28/142 7/21/143 28/27/144
f 8/13/145 9/15/146 29/29/147
f 9/15/148 12/28/149 29/29/150
f 12/28/151 8/13/152 29/29/153
f 9/15/154 10/17/155 30/30/156
f 10/17/157 12/28/158 30/30/159
f 12/28/160 9/15/161 30/30/162
f 10/17/163 11/19/164 31/31/165
f 11/19/166 12/28/167 31/31/168
f 12/28/169 10/17/170 31/31/171
f 11/19/172 7/21/173 32/32/174
f 7/21/175 12/28/176 32/32/177
f 12/28/178 11/19/179 32/32/180
usemtl pPlatonic6SG
f 33/33/181 35/34/182 45/35/183
f 35/34/184 34/36/185 45/35/186
f 34/36/187 33/33/188 45/35/189
f 33/33/190 36/37/191 46/38/192
f 36/37/193 35/34/194 46/38/195
f 35/34/196 33/33/197 46/38/198
f 33/33/199 37/39/200 47/40/201
f 37/39/202 36/37/203 47/40/204
f 36/37/205 33/33/206 47/40/207
f 33/33/208 38/41/209 48/42/210
f 38/41/211 37/39/212 48/42/213
f 37/39/214 33/33/215 48/42/216
f 33/33/217 34/36/218 49/43/219
f 34/36/220 38/41/221 49/43/222
f 38/41/223 33/33/224 49/43/225
f 34/36/226 35/34/227 50/44/228
f 35/34/229 40/45/230 50/44/231
f 40/45/232 34/36/233 50/44/234
f 35/34/235 36/37/236 51/46/237
f 36/37/238 41/47/239 51/46/240
f 41/47/241 35/34/242 51/46/243
f 36/37/244 37/39/245 52/48/246
f 37/39/247 42/49/248 52/48/249
f 42/49/250 36/37/251 52/48/252
f 37/39/253 38/41/254 53/50/255
f 38/41/256 43/51/257 53/50/258
f 43/51/259 37/39/260 53/50/261
f 38/41/262 34/36/263 54/52/264
f 34/36/265 39/53/266 54/52/267
f 39/53/268 38/41/269 54/52/270
f 34/36/271 40/45/272 55/54/273
f 40/45/274 39/53/275 55/54/276
f 39/53/277 34/36/278 55/54/279
f 35/34/280 41/47/281 56/55/282
f 41/47/283 40/45/284 56/55/285
f 40/45/286 35/34/287 56/55/288
f 36/37/289 42/49/290 57/56/291
f 42/49/292 41/47/293 57/56/294
f 41/47/295 36/37/296 57/56/297
f 37/39/298 43/51/299 58/57/300
f 43/51/301 42/49/302 58/57/303
f 42/49/304 37/39/305 58/57/306
f 38/41/307 39/53/308 59/58/309
f 39/53/310 43/51/311 59/58/312
f 43/51/313 38/41/314 59/58/315
f 39/53/316 40/45/317 60/59/318
f 40/45/319 44/60/320 60/59/321
f 44/60/322 39/53/323 60/59/324
f 40/45/325 41/47/326 61/61/327
f 41/47/328 44/60/329 61/61/330
f 44/60/331 40/45/332 61/61/333
f 41/47/334 42/49/335 62/62/336
f 42/49/337 44/60/338 62/62/339
f 44/60/340 41/47/341 62/62/342
f 42/49/343 43/51/344 63/63/345
f 43/51/346 44/60/347 63/63/348
f 44/60/349 42/49/350 63/63/351
f 43/51/352 39/53/353 64/64/354
f 39/53/355 44/60/356 64/64/357
f 44/60/358 43/51/359 64/64/360
usemtl pPlatonic7SG
f 65/65/361 67/66/362 77/67/363
f 67/66/364 66/68/365 77/67/366
f 66/68/367 65/65/368 77/67/369
f 65/65/370 68/69/371 78/70/372
f 68/69/373 67/66/374 78/70/375
f 67/66/376 65/65/377 78/70/378
f 65/65/379 69/71/380 79/72/381
f 69/71/382 68/69/383 79/72/384
f 68/69/385 65/65/386 79/72/387
f 65/65/388 70/73/389 80/74/390
f 70/73/391 69/71/392 80/74/393
f 69/71/394 65/65/395 80/74/396
f 65/65/397 66/68/398 81/75/399
f 66/68/400 70/73/401 81/75/402
f 70/73/403 65/65/404 81/75/405
f 66/68/406 67/66/407 82/76/408
f 67/66/409 72/77/410 82/76/411
f 72/77/412 66/68/413 82/76/414
f 67/66/415 68/69/416 83/78/417
f 68/69/418 73/79/419 83/78/420
f 73/79/421 67/66/422 83/78/423
f 68/69/424 69/71/425 84/80/426
f 69/71/427 74/81/428 84/80/429
f 74/81/430 68/69/431 84/80/432
f 69/71/433 70/73/434 85/82/435
f 70/73/436 75/83/437 85/82/438
f 75/83/439 69/71/440 85/82/441
f 70/73/442 66/68/443 86/84/444
f 66/68/445 71/85/446 86/84/447
f 71/85/448 70/73/449 86/84/450
f 66/68/451 72/77/452 87/86/453
f 72/77/454 71/85/455 87/86/456
f 71/85/457 66/68/458 87/86/459
f 67/66/460 73/79/461 88/87/462
f 73/79/463 72/77/464 88/87/465
f 72/77/466 67/66/467 88/87/468
f 68/69/469 74/81/470 89/88/471
f 74/81/472 73/79/473 89/88/474
f 73/79/475 68/69/476 89/88/477
f 69/71/478 75/83/479 90/89/480
f 75/83/481 74/81/482 90/89/483
f 74/81/484 69/71/485 90/89/486
f 70/73/487 71/85/488 91/90/489
f 71/85/490 75/83/491 91/90/492
f 75/83/493 70/73/494 91/90/495
f 71/85/496 72/77/497 92/91/498
f 72/77/499 76/92/500 92/91/501
f 76/92/502 71/85/503 92/91/504
f 72/77/505 73/79/506 93/93/507
f 73/79/508 76/92/509 93/93/510
f 76/92/511 72/77/512 93/93/513
f 73/79/514 74/81/515 94/94/516
f 74/81/517 76/92/518 94/94/519
f 76/92/520 73/79/521 94/94/522
f 74/81/523 75/83/524 95/95/525
f 75/83/526 76/92/527 95/95/528
f 76/92/529 74/81/530 95/95/531
f 75/83/532 71/85/533 96/96/534
f 71/85/535 76/92/536 96/96/537
f 76/92/538 75/83/539 96/96/540
usemtl pPlatonic8SG
f 97/97/541 99/98/542 109/99/543
f 99/98/544 98/100/545 109/99/546
f 98/100/547 97/97/548 109/99/549
f 97/97/550 100/101/551 110/102/552
f 100/101/553 99/98/554 110/102/555
f 99/98/556 97/97/557 110/102/558
f 97/97/559 101/103/560 111/104/561
f 101/103/562 100/101/563 111/104/564
f 100/101/565 97/97/566 111/104/567
f 97/97/568 102/105/569 112/106/570
f 102/105/571 101/103/572 112/106/573
f 101/103/574 97/97/575 112/106/576
f 97/97/577 98/100/578 113/107/579
f 98/100/580 102/105/581 113/107/582
f 102/105/583 97/97/584 113/107/585
f 98/100/586 99/98/587 114/108/588
f 99/98/589 104/109/590 114/108/591
f 104/109/592 98/100/593 114/108/594
f 99/98/595 100/101/596 115/110/597
f 100/101/598 105/111/599 115/110/600
f 105/111/601 99/98/602 115/110/603
f 100/101/604 101/103/605 116/112/606
f 101/103/607 106/113/608 116/112/609
f 106/113/610 100/101/611 116/112/612
f 101/103/613 102/105/614 117/114/615
f 102/105/616 107/115/617 117/114/618
f 107/115/619 101/103/620 117/114/621
f 102/105/622 98/100/623 118/116/624
f 98/100/625 103/117/626 118/116/627
f 103/117/628 102/105/629 118/116/630
f 98/100/631 104/109/632 119/118/633
f 104/109/634 103/117/635 119/118/636
f 103/117/637 98/100/638 119/118/639
f 99/98/640 105/111/641 120/119/642
f 105/111/643 104/109/644 120/119/645
f 104/109/646 99/98/647 120/119/648
f 100/101/649 106/113/650 121/120/651
f 106/113/652 105/111/653 121/120/654
f 105/111/655 100/101/656 121/120/657
f 101/103/658 107/115/659 122/121/660
f 107/115/661 106/113/662 122/121/663
f 106/113/664 101/103/665 122/121/666
f 102/105/667 103/117/668 123/122/669
f 103/117/670 107/115/671 123/122/672
f 107/115/673 102/105/674 123/122/675
f 103/117/676 104/109/677 124/123/678
f 104/109/679 108/124/680 124/123/681
f 108/124/682 103/117/683 124/123/684
f 104/109/685 105/111/686 125/125/687
f 105/111/688 108/124/689 125/125/690
f 108/124/691 104/109/692 125/125/693
f 105/111/694 106/113/695 126/126/696
f 106/113/697 108/124/698 126/126/699
f 108/124/700 105/111/701 126/126/702
f 106/113/703 107/115/704 127/127/705
f 107/115/706 108/124/707 127/127/708
f 108/124/709 106/113/710 127/127/711
f 107/115/712 103/117/713 128/128/714
f 103/117/715 108/124/716 128/128/717
f 108/124/718 107/115/719 128/128/720
g default
v -1.762208 3.014323 -0.859846
v -1.964456 2.687078 -0.330354
v -2.291701 3.216571 -0.532602
v -2.089453 2.889327 -0.657598
v -2.089453 2.889327 -0.003109
v -1.762208 3.014323 0.199139
v -1.964456 3.746064 -0.330354
v -2.291701 3.216571 -0.128105
v -2.089453 3.543815 -0.657598
v -2.089453 3.543815 -0.003109
v -1.762208 3.418819 -0.859846
v -1.559960 2.687078 -0.330354
v -1.232716 3.216571 -0.532602
v -1.434964 2.889327 -0.657598
v -1.434964 2.889327 -0.003109
v -1.762208 3.418819 0.199139
v -1.559960 3.746064 -0.330354
v -1.232716 3.216571 -0.128105
v -1.434964 3.543815 -0.657598
v -1.434964 3.543815 -0.003109
v 2.156111 3.014323 -2.284899
v 1.953862 2.687078 -1.755407
v 1.626618 3.216571 -1.957655
v 1.828866 2.889327 -2.082651
v 1.828866 2.889327 -1.428162
v 2.156111 3.014323 -1.225914
v 1.953862 3.746064 -1.755407
v 1.626618 3.216571 -1.553158
v 1.828866 3.543815 -2.082651
v 1.828866 3.543815 -1.428162
v 2.156111 3.418819 -2.284899
v 2.358359 2.687078 -1.755407
v 2.685603 3.216571 -1.957655
v 2.483355 2.889327 -2.082651
v 2.483355 2.889327 -1.428162
v 2.156111 3.418819 -1.225914
v 2.358359 3.746064 -1.755407
v 2.685603 3.216571 -1.553158
v 2.483355 3.543815 -2.082651
v 2.483355 3.543815 -1.428162
v 0.012621 5.070596 -0.442998
v -0.189628 4.743351 0.086494
v -0.516872 5.272844 -0.115755
v -0.314624 4.945599 -0.240750
v -0.314624 4.945599 0.413739
v 0.012621 5.070596 0.615986
v -0.189628 5.802337 0.086494
v -0.516872 5.272844 0.288743
v -0.314624 5.600089 -0.240750
v -0.314624 5.600089 0.413739
v 0.012621 5.475092 -0.442998
v 0.214869 4.743351 0.086494
v 0.542113 5.272844 -0.115755
v 0.339865 4.945599 -0.240750
v 0.339865 4.945599 0.413739
v 0.012621 5.475092 0.615986
v 0.214869 5.802337 0.086494
v 0.542113 5.272844 0.288743
v 0.339865 5.600089 -0.240750
v 0.339865 5.600089 0.413739
vt -0.000000 0.077758
vt 0.010198 0.084063
vt 0.016502 0.080913
vt 0.010200 0.072660
vt 0.000001 0.070710
vt 0.026702 0.075815
vt 0.026702 0.075815
vt 0.016502 0.080913
vt 0.010200 0.072660
vt 0.000001 0.070710
vt 0.000004 0.059307
vt 0.000004 0.059307
vt 0.026706 0.057364
vt 0.016508 0.051059
vt 0.010204 0.054209
vt 0.016506 0.062462
vt 0.026705 0.064412
vt 0.026705 0.064412
vt 0.016506 0.062462
vt 0.010204 0.054209
vt 0.273444 0.031413
vt 0.285434 0.031413
vt 0.289139 0.025418
vt 0.279439 0.021712
vt 0.269739 0.025418
vt 0.295134 0.015718
vt 0.295134 0.015718
vt 0.289139 0.025418
vt 0.279439 0.021712
vt 0.269739 0.025418
vt 0.263744 0.015718
vt 0.263744 0.015718
vt 0.285434 0.000022
vt 0.273444 0.000022
vt 0.269739 0.006017
vt 0.279439 0.009723
vt 0.289139 0.006017
vt 0.289139 0.006017
vt 0.279439 0.009723
vt 0.269739 0.006017
vt 0.976762 0.071871
vt 0.988752 0.071871
vt 0.992458 0.065876
vt 0.982757 0.062171
vt 0.973057 0.065876
vt 0.998452 0.056176
vt 0.998452 0.056176
vt 0.992458 0.065876
vt 0.982757 0.062171
vt 0.973057 0.065876
vt 0.967062 0.056176
vt 0.967062 0.056176
vt 0.988752 0.040481
vt 0.976762 0.040481
vt 0.973057 0.046476
vt 0.982757 0.050181
vt 0.992458 0.046476
vt 0.992458 0.046476
vt 0.982757 0.050181
vt 0.973057 0.046476
vn 0.000000 0.850651 -0.525732
vn 0.000000 0.850651 -0.525732
vn 0.000000 0.850651 -0.525732
vn 0.000000 0.850651 -0.525732
vn 0.000000 0.850651 -0.525732
vn 0.850651 0.525731 0.000000
vn 0.850651 0.525731 0.000000
vn 0.850651 0.525731 0.000000
vn 0.850651 0.525731 0.000000
vn 0.850651 0.525731 0.000000
vn 0.000000 0.850651 0.525731
vn 0.000000 0.850651 0.525732
vn 0.000000 0.850651 0.525731
vn 0.000000 0.850651 0.525731
vn 0.000000 0.850651 0.525732
vn -0.850651 0.525731 -0.000000
vn -0.850651 0.525731 -0.000000
vn -0.850651 0.525731 -0.000000
vn -0.850651 0.525731 -0.000000
vn -0.850651 0.525731 -0.000000
vn 0.000000 -0.850651 -0.525732
vn 0.000000 -0.850651 -0.525732
vn 0.000000 -0.850651 -0.525732
vn 0.000000 -0.850651 -0.525732
vn 0.000000 -0.850651 -0.525732
vn 0.000000 -0.850651 0.525732
vn 0.000000 -0.850651 0.525732
vn 0.000000 -0.850651 0.525732
vn 0.000000 -0.850651 0.525732
vn 0.000000 -0.850651 0.525732
vn 0.525730 0.000000 -0.850652
vn 0.525730 0.000000 -0.850652
vn 0.525730 0.000000 -0.850652
vn 0.525730 0.000000 -0.850652
vn 0.525730 0.000000 -0.850652
vn -0.525730 0.000000 -0.850652
vn -0.525730 0.000000 -0.850652
vn -0.525730 0.000000 -0.850652
vn -0.525730 0.000000 -0.850652
vn -0.525730 0.000000 -0.850652
vn -0.850651 -0.525731 -0.000000
vn -0.850651 -0.525731 -0.000000
vn -0.850651 -0.525731 -0.000000
vn -0.850651 -0.525731 -0.000000
vn -0.850651 -0.525731 -0.000000
vn -0.525730 0.000000 0.850652
vn -0.525730 0.000000 0.850652
vn -0.525730 0.000000 0.850652
vn -0.525730 0.000000 0.850652
vn -0.525730 0.000000 0.850652
vn 0.850651 -0.525731 0.000000
vn 0.850651 -0.525731 0.000000
vn 0.850651 -0.525731 0.000000
vn 0.850651 -0.525731 0.000000
vn 0.850651 -0.525731 0.000000
vn 0.525730 0.000000 0.850652
vn 0.525730 0.000000 0.850652
vn 0.525730 0.000000 0.850652
vn 0.525730 0.000000 0.850652
vn 0.525730 0.000000 0.850652
vn 0.000000 0.850651 -0.525732
vn 0.000000 0.850651 -0.525732
vn 0.000000 0.850651 -0.525732
vn 0.000000 0.850651 -0.525732
vn 0.000000 0.850651 -0.525732
vn 0.850651 0.525731 0.000000
vn 0.850651 0.525731 0.000000
vn 0.850651 0.525731 0.000000
vn 0.850651 0.525731 0.000000
vn 0.850651 0.525731 0.000000
vn 0.000000 0.850651 0.525731
vn 0.000000 0.850651 0.525732
vn 0.000000 0.850651 0.525731
vn 0.000000 0.850651 0.525731
vn 0.000000 0.850651 0.525732
vn -0.850651 0.525731 -0.000000
vn -0.850651 0.525731 -0.000000
vn -0.850651 0.525731 -0.000000
vn -0.850651 0.525731 -0.000000
vn -0.850651 0.525731 -0.000000
vn 0.000000 -0.850651 -0.525732
vn 0.000000 -0.850651 -0.525732
vn 0.000000 -0.850651 -0.525732
vn 0.000000 -0.850651 -0.525732
vn 0.000000 -0.850651 -0.525732
vn 0.000000 -0.850651 0.525732
vn 0.000000 -0.850651 0.525732
vn 0.000000 -0.850651 0.525732
vn 0.000000 -0.850651 0.525732
vn 0.000000 -0.850651 0.525732
vn 0.525730 0.000000 -0.850652
vn 0.525730 0.000000 -0.850652
vn 0.525730 0.000000 -0.850652
vn 0.525730 0.000000 -0.850652
vn 0.525730 0.000000 -0.850652
vn -0.525730 0.000000 -0.850652
vn -0.525730 0.000000 -0.850652
vn -0.525730 0.000000 -0.850652
vn -0.525730 0.000000 -0.850652
vn -0.525730 0.000000 -0.850652
vn -0.850651 -0.525731 -0.000000
vn -0.850651 -0.525731 -0.000000
vn -0.850651 -0.525731 -0.000000
vn -0.850651 -0.525731 -0.000000
vn -0.850651 -0.525731 -0.000000
vn -0.525730 0.000000 0.850652
vn -0.525730 0.000000 0.850652
vn -0.525730 0.000000 0.850652
vn -0.525730 0.000000 0.850652
vn -0.525730 0.000000 0.850652
vn 0.850651 -0.525731 0.000000
vn 0.850651 -0.525731 0.000000
vn 0.850651 -0.525731 0.000000
vn 0.850651 -0.525731 0.000000
vn 0.850651 -0.525731 0.000000
vn 0.525730 0.000000 0.850652
vn 0.525730 0.000000 0.850652
vn 0.525730 0.000000 0.850652
vn 0.525730 0.000000 0.850652
vn 0.525730 0.000000 0.850652
vn 0.000000 0.850651 -0.525731
vn 0.000000 0.850651 -0.525731
vn 0.000000 0.850651 -0.525731
vn 0.000000 0.850651 -0.525731
vn 0.000000 0.850651 -0.525731
vn 0.850651 0.525731 0.000000
vn 0.850651 0.525731 0.000000
vn 0.850651 0.525731 0.000000
vn 0.850651 0.525731 0.000000
vn 0.850651 0.525731 0.000000
vn 0.000000 0.850651 0.525731
vn 0.000000 0.850651 0.525731
vn 0.000000 0.850651 0.525731
vn 0.000000 0.850651 0.525731
vn 0.000000 0.850651 0.525731
vn -0.850651 0.525731 0.000000
vn -0.850651 0.525731 0.000000
vn -0.850651 0.525731 0.000000
vn -0.850651 0.525731 0.000000
vn -0.850651 0.525731 0.000000
vn 0.000000 -0.850651 -0.525731
vn 0.000000 -0.850651 -0.525731
vn 0.000000 -0.850651 -0.525731
vn 0.000000 -0.850651 -0.525731
vn 0.000000 -0.850651 -0.525731
vn 0.000000 -0.850651 0.525731
vn 0.000000 -0.850651 0.525731
vn 0.000000 -0.850651 0.525731
vn 0.000000 -0.850651 0.525731
vn 0.000000 -0.850651 0.525731
vn 0.525730 0.000000 -0.850651
vn 0.525730 0.000000 -0.850651
vn 0.525730 0.000000 -0.850651
vn 0.525730 0.000000 -0.850651
vn 0.525730 0.000000 -0.850651
vn -0.525730 0.000000 -0.850652
vn -0.525730 0.000000 -0.850652
vn -0.525730 0.000000 -0.850652
vn -0.525730 0.000000 -0.850652
vn -0.525730 0.000000 -0.850652
vn -0.850651 -0.525731 0.000000
vn -0.850651 -0.525731 0.000000
vn -0.850651 -0.525731 0.000000
vn -0.850651 -0.525731 0.000000
vn -0.850651 -0.525731 0.000000
vn -0.525730 0.000000 0.850651
vn -0.525730 0.000000 0.850651
vn -0.525730 0.000000 0.850651
vn -0.525730 0.000000 0.850651
vn -0.525730 0.000000 0.850651
vn 0.850651 -0.525731 0.000000
vn 0.850651 -0.525731 0.000000
vn 0.850651 -0.525731 0.000000
vn 0.850651 -0.525731 0.000000
vn 0.850651 -0.525731 0.000000
vn 0.525730 0.000000 0.850652
vn 0.525730 0.000000 0.850652
vn 0.525730 0.000000 0.850652
vn 0.525730 0.000000 0.850652
vn 0.525730 0.000000 0.850652
s off
g bush flora pPlatonic9
usemtl pPlatonic9SG
f 135/129/721 145/130/722 147/131/723 139/132/724 137/133/725
f 146/134/726 141/135/727 147/131/728 145/130/729 148/136/730
f 144/137/731 148/136/732 145/130/733 135/129/734 138/138/735
f 131/139/736 136/140/737 138/138/738 135/129/739 137/133/740
f 140/141/741 130/142/742 132/143/743 129/144/744 142/145/745
f 130/142/746 140/141/747 143/146/748 134/147/749 133/148/750
f 142/145/751 129/144/752 139/132/753 147/131/754 141/135/755
f 129/144/756 132/143/757 131/139/758 137/133/759 139/132/760
f 130/142/761 133/148/762 136/140/763 131/139/764 132/143/765
f 133/148/766 134/147/767 144/137/768 138/138/769 136/140/770
f 140/141/771 142/145/772 141/135/773 146/134/774 143/146/775
f 134/147/776 143/146/777 146/134/778 148/136/779 144/137/780
usemtl pPlatonic10SG
f 155/149/781 165/150/782 167/151/783 159/152/784 157/153/785
f 166/154/786 161/155/787 167/151/788 165/150/789 168/156/790
f 164/157/791 168/156/792 165/150/793 155/149/794 158/158/795
f 151/159/796 156/160/797 158/158/798 155/149/799 157/153/800
f 160/161/801 150/162/802 152/163/803 149/164/804 162/165/805
f 150/162/806 160/161/807 163/166/808 154/167/809 153/168/810
f 162/165/811 149/164/812 159/152/813 167/151/814 161/155/815
f 149/164/816 152/163/817 151/159/818 157/153/819 159/152/820
f 150/162/821 153/168/822 156/160/823 151/159/824 152/163/825
f 153/168/826 154/167/827 164/157/828 158/158/829 156/160/830
f 160/161/831 162/165/832 161/155/833 166/154/834 163/166/835
f 154/167/836 163/166/837 166/154/838 168/156/839 164/157/840
usemtl pPlatonic11SG
f 175/169/841 185/170/842 187/171/843 179/172/844 177/173/845
f 186/174/846 181/175/847 187/171/848 185/170/849 188/176/850
f 184/177/851 188/176/852 185/170/853 175/169/854 178/178/855
f 171/179/856 176/180/857 178/178/858 175/169/859 177/173/860
f 180/181/861 170/182/862 172/183/863 169/184/864 182/185/865
f 170/182/866 180/181/867 183/186/868 174/187/869 173/188/870
f 182/185/871 169/184/872 179/172/873 187/171/874 181/175/875
f 169/184/876 172/183/877 171/179/878 177/173/879 179/172/880
f 170/182/881 173/188/882 176/180/883 171/179/884 172/183/885
f 173/188/886 174/187/887 184/177/888 178/178/889 176/180/890
f 180/181/891 182/185/892 181/175/893 186/174/894 183/186/895
f 174/187/896 183/186/897 186/174/898 188/176/899 184/177/900
