# This file uses centimeters as units for non-parametric coordinates.

mtllib branch1_fix.mtl
g default
v -1.675119 -0.036843 0.279484
v 1.675119 -0.023345 -0.095115
v -1.675119 0.121476 0.279484
v 1.674390 0.110281 -0.095115
v -1.675119 0.121476 -0.089696
v 1.674389 0.110281 -0.225333
v -1.675119 -0.036843 -0.089696
v 1.675119 -0.023345 -0.221859
v -0.085121 -0.070817 0.141629
v -0.085121 0.128983 0.141629
v -0.085121 0.128983 -0.133475
v -0.085121 -0.070817 -0.133475
v -0.837560 -0.070817 0.250711
v -0.837560 0.148896 0.250711
v -0.837560 0.148896 -0.072692
v -0.837560 -0.070817 -0.072692
v -1.675119 -0.036843 0.021058
v -1.537150 0.244218 0.021058
v -0.837560 0.272596 0.021058
v -0.085121 0.272596 -0.049479
v -0.085121 -0.070817 -0.064192
v -0.837560 -0.070817 0.021058
v -1.537150 0.244218 0.168730
v -1.675119 -0.036843 0.168730
v -0.837560 -0.070817 0.168730
v -0.085121 -0.070817 0.083481
v -0.085121 0.272596 0.068768
v -0.837560 0.272596 0.168730
v -1.674909 0.121757 0.021058
v -1.674909 0.121757 0.168730
v -0.418780 -0.070817 0.190000
v -0.418780 0.137813 0.190000
v -0.418780 0.272596 0.113094
v -0.418780 0.272596 -0.018201
v -0.418780 0.137813 -0.106520
v -0.418780 -0.070817 -0.106520
v -0.418780 -0.070817 -0.026389
v -0.418780 -0.070817 0.121283
v -0.119210 -0.070817 0.294627
v -0.119210 0.095391 0.294627
v 0.061879 -0.070817 0.234092
v 0.061879 0.084340 0.234092
v 0.204343 -0.070817 0.347831
v 0.204343 0.053347 0.347831
v 0.191135 -0.070817 0.263836
v 0.191135 0.042264 0.263836
v 0.396261 -0.070817 0.331817
v 0.396261 0.009292 0.331817
v 0.367868 -0.070817 0.284790
v 0.367868 0.002488 0.284790
vt 0.375000 0.000000
vt 0.662500 0.000000
vt 0.375000 0.250000
vt 0.650000 0.275000
vt 0.375000 0.500000
vt 0.625000 0.462500
vt 0.375000 0.750000
vt 0.625000 0.787500
vt 0.375000 1.000000
vt 0.625000 0.962500
vt 0.837500 0.000000
vt 0.837500 0.250000
vt 0.125000 0.000000
vt 0.125000 0.250000
vt 0.500000 0.000000
vt 0.500000 1.000000
vt 0.500000 0.250000
vt 0.500000 0.500000
vt 0.500000 0.750000
vt 0.437500 0.000000
vt 0.437500 1.000000
vt 0.437500 0.250000
vt 0.437500 0.500000
vt 0.437500 0.750000
vt 0.200000 0.000000
vt 0.375000 0.825000
vt 0.200000 0.250000
vt 0.375000 0.425000
vt 0.437500 0.425000
vt 0.500000 0.425000
vt 0.500000 0.825000
vt 0.437500 0.825000
vt 0.300000 0.250000
vt 0.375000 0.325000
vt 0.300000 0.000000
vt 0.375000 0.925000
vt 0.437500 0.925000
vt 0.500000 0.925000
vt 0.500000 0.325000
vt 0.437500 0.325000
vt 0.200000 0.143684
vt 0.300000 0.143684
vt 0.468750 0.000000
vt 0.468750 1.000000
vt 0.468750 0.250000
vt 0.468750 0.325000
vt 0.468750 0.425000
vt 0.468750 0.500000
vt 0.468750 0.750000
vt 0.468750 0.825000
vt 0.468750 0.925000
vt 0.468750 0.250000
vt 0.468750 0.000000
vt 0.500000 0.000000
vt 0.500000 0.250000
vt 0.468750 0.250000
vt 0.468750 0.000000
vt 0.500000 0.000000
vt 0.500000 0.250000
vt 0.468750 0.250000
vt 0.468750 0.000000
vt 0.500000 0.000000
vt 0.500000 0.250000
vn 0.034333 0.000000 0.999410
vn 0.034334 0.000000 0.999410
vn 0.034334 0.000000 0.999410
vn 0.034333 0.000000 0.999410
vn -0.007754 0.618715 0.785577
vn -0.007754 0.618715 0.785577
vn -0.007754 0.618715 0.785577
vn -0.007754 0.618715 0.785577
vn 0.020298 0.000000 -0.999794
vn 0.020298 0.000000 -0.999794
vn 0.020298 0.000000 -0.999794
vn 0.020298 0.000000 -0.999794
vn -0.040530 -0.999178 0.000000
vn -0.040530 -0.999178 0.000000
vn -0.040530 -0.999178 0.000000
vn -0.040530 -0.999178 0.000000
vn -0.664392 0.747384 0.000632
vn -0.664392 0.747384 0.000632
vn -0.664392 0.747384 0.000632
vn 0.133320 0.000292 0.991073
vn 0.133320 0.000292 0.991073
vn 0.133320 0.000292 0.991073
vn 0.133320 0.000292 0.991073
vn 0.123840 0.448964 0.884926
vn 0.123840 0.448964 0.884926
vn 0.123840 0.448964 0.884926
vn -0.051053 -0.010518 -0.998641
vn -0.051053 -0.010518 -0.998641
vn -0.051053 -0.010518 -0.998641
vn -0.051053 -0.010518 -0.998641
vn 0.026959 -0.999637 0.000000
vn 0.026959 -0.999637 0.000000
vn 0.026959 -0.999637 0.000000
vn 0.143470 0.000000 0.989655
vn 0.143470 0.000000 0.989655
vn 0.143470 0.000000 0.989655
vn 0.143470 0.000000 0.989655
vn 0.124300 0.519607 0.845315
vn 0.124300 0.519607 0.845315
vn 0.124300 0.519607 0.845315
vn 0.124300 0.519607 0.845315
vn -0.080516 0.000000 -0.996753
vn -0.080516 0.000000 -0.996753
vn -0.080516 0.000000 -0.996753
vn -0.080516 0.000000 -0.996753
vn 0.000000 -1.000000 0.000000
vn 0.000000 -1.000000 0.000000
vn 0.000000 -1.000000 0.000000
vn 0.000000 -1.000000 0.000000
vn -0.664392 0.747384 -0.000632
vn -0.664392 0.747384 -0.000632
vn -0.664392 0.747384 -0.000632
vn -0.040530 -0.999178 0.000000
vn -0.040530 -0.999178 0.000000
vn -0.040530 -0.999178 0.000000
vn -0.040530 -0.999178 0.000000
vn 0.000000 -1.000000 0.000000
vn 0.000000 -1.000000 0.000000
vn 0.000000 -1.000000 0.000000
vn 0.000000 -1.000000 0.000000
vn 0.026959 -0.999637 0.000000
vn 0.026959 -0.999637 0.000000
vn 0.026959 -0.999637 0.000000
vn -0.039667 0.504469 -0.862518
vn -0.039667 0.504469 -0.862518
vn -0.039667 0.504469 -0.862518
vn -0.063592 0.574696 -0.815893
vn -0.063592 0.574696 -0.815893
vn -0.063592 0.574696 -0.815893
vn -0.063592 0.574696 -0.815893
vn -0.014890 0.643442 -0.765350
vn -0.014890 0.643442 -0.765350
vn -0.014890 0.643442 -0.765350
vn -0.014890 0.643442 -0.765350
vn -0.664391 0.747385 0.000000
vn -0.664391 0.747385 0.000000
vn -0.664391 0.747385 0.000000
vn -0.664391 0.747385 0.000000
vn -0.040530 -0.999178 0.000000
vn -0.040530 -0.999178 0.000000
vn -0.040530 -0.999178 0.000000
vn -0.040530 -0.999178 0.000000
vn 0.000000 -1.000000 0.000000
vn 0.000000 -1.000000 0.000000
vn 0.000000 -1.000000 0.000000
vn 0.000000 -1.000000 0.000000
vn 0.026959 -0.999637 0.000000
vn 0.026959 -0.999637 0.000000
vn 0.026959 -0.999637 0.000000
vn 0.026959 -0.999637 0.000000
vn 0.999985 0.005461 -0.000001
vn 0.999985 0.005461 -0.000001
vn 0.999985 0.005461 -0.000001
vn 0.999985 0.005461 -0.000001
vn 0.091860 0.995772 -0.000000
vn 0.091860 0.995772 -0.000000
vn 0.091860 0.995772 -0.000000
vn 0.091860 0.995772 -0.000000
vn 0.000000 1.000000 0.000000
vn 0.000000 1.000000 0.000000
vn 0.000000 1.000000 0.000000
vn 0.000000 1.000000 0.000000
vn -0.040530 0.999178 0.000000
vn -0.040530 0.999178 0.000000
vn -0.040530 0.999178 0.000000
vn -0.040530 0.999178 0.000000
vn -0.999999 0.000665 0.000949
vn -0.999999 0.000665 0.000949
vn -0.999999 0.000665 0.000949
vn -0.999999 0.000665 0.000949
vn -0.999999 0.001326 0.000000
vn -0.999999 0.001326 0.000000
vn -0.999999 0.001326 0.000000
vn -0.999999 0.001326 0.000000
vn -0.999999 0.000665 -0.000949
vn -0.999999 0.000665 -0.000949
vn -0.999999 0.000665 -0.000949
vn -0.999999 0.000665 -0.000949
vn 0.856074 0.000000 -0.516854
vn 0.856073 0.000000 -0.516854
vn 0.856073 0.000000 -0.516854
vn 0.856074 0.000000 -0.516854
vn 0.127551 0.469892 0.873460
vn 0.127551 0.469892 0.873460
vn 0.127551 0.469892 0.873460
vn 0.127551 0.469892 0.873460
vn 0.000000 1.000000 0.000000
vn 0.000000 1.000000 0.000000
vn 0.000000 1.000000 0.000000
vn 0.000000 1.000000 0.000000
vn -0.067084 0.525114 -0.848383
vn -0.067084 0.525114 -0.848384
vn -0.067084 0.525114 -0.848384
vn -0.067084 0.525114 -0.848384
vn -0.080523 0.000000 -0.996753
vn -0.080523 0.000000 -0.996753
vn -0.080523 0.000000 -0.996753
vn -0.080523 0.000000 -0.996753
vn 0.000000 -1.000000 0.000000
vn 0.000000 -1.000000 0.000000
vn 0.000000 -1.000000 0.000000
vn 0.000000 -1.000000 0.000000
vn 0.000000 -1.000000 0.000000
vn 0.000000 -1.000000 0.000000
vn 0.000000 -1.000000 0.000000
vn 0.000000 -1.000000 0.000000
vn 0.000000 -1.000000 0.000000
vn 0.000000 -1.000000 0.000000
vn 0.000000 -1.000000 0.000000
vn 0.000000 -1.000000 0.000000
vn -0.329725 0.000000 0.944077
vn -0.329725 0.000000 0.944077
vn -0.329725 0.000000 0.944077
vn -0.329726 0.000000 0.944077
vn 0.000000 -1.000000 0.000000
vn 0.000000 -1.000000 0.000000
vn 0.000000 -1.000000 0.000000
vn 0.000000 -1.000000 0.000000
vn 0.532434 0.000000 -0.846472
vn 0.532434 0.000000 -0.846472
vn 0.532434 0.000000 -0.846472
vn 0.532434 0.000000 -0.846472
vn 0.086504 0.968862 0.231997
vn 0.086504 0.968862 0.231997
vn 0.086504 0.968862 0.231997
vn 0.086504 0.968862 0.231997
vn -0.162259 0.000000 0.986748
vn -0.162259 0.000000 0.986748
vn -0.162259 0.000000 0.986748
vn -0.162259 0.000000 0.986748
vn 0.000000 -1.000000 0.000000
vn 0.000000 -1.000000 0.000000
vn 0.000000 -1.000000 0.000000
vn 0.000000 -1.000000 0.000000
vn 0.224256 0.000000 -0.974530
vn 0.224256 0.000000 -0.974530
vn 0.224256 0.000000 -0.974530
vn 0.224256 0.000000 -0.974530
vn 0.173408 0.983539 0.050801
vn 0.173408 0.983539 0.050801
vn 0.173408 0.983539 0.050801
vn 0.173408 0.983539 0.050801
vn 0.083154 -0.000000 0.996537
vn 0.083154 -0.000000 0.996537
vn 0.083154 -0.000000 0.996537
vn 0.083154 -0.000000 0.996537
vn -0.000000 -1.000000 0.000000
vn -0.000000 -1.000000 0.000000
vn -0.000000 -1.000000 0.000000
vn -0.000000 -1.000000 0.000000
vn 0.117737 0.000000 -0.993045
vn 0.117737 0.000000 -0.993045
vn 0.117737 0.000000 -0.993045
vn 0.117737 0.000000 -0.993045
vn 0.219801 0.954795 -0.200136
vn 0.219801 0.954795 -0.200136
vn 0.219801 0.954795 -0.200136
vn 0.219801 0.954795 -0.200136
s off
g branch1 branches flora
usemtl branch1SG
f 1/1/1 13/20/2 14/22/3 3/3/4
f 3/3/5 14/22/6 28/40/7 23/34/8
f 5/5/9 15/23/10 16/24/11 7/7/12
f 24/36/13 25/37/14 13/21/15 1/9/16
f 23/33/17 30/42/18 3/3/19
f 10/17/20 9/15/21 2/2/22 4/4/23
f 4/4/24 27/39/25 10/17/26
f 12/19/27 11/18/28 6/6/29 8/8/30
f 9/16/31 26/38/32 2/10/33
f 14/22/34 13/20/35 31/43/36 32/45/37
f 32/45/38 33/46/39 28/40/40 14/22/41
f 16/24/42 15/23/43 35/48/44 36/49/45
f 13/21/46 25/37/47 38/51/48 31/44/49
f 5/14/50 29/41/51 18/27/52
f 7/7/53 16/24/54 22/32/55 17/26/56
f 36/49/57 37/50/58 22/32/59 16/24/60
f 8/8/61 21/31/62 12/19/63
f 11/18/64 20/30/65 6/6/66
f 15/23/67 19/29/68 34/47/69 35/48/70
f 18/28/71 19/29/72 15/23/73 5/5/74
f 29/41/75 30/42/76 23/33/77 18/27/78
f 25/37/79 24/36/80 17/26/81 22/32/82
f 37/50/83 38/51/84 25/37/85 22/32/86
f 2/10/87 26/38/88 21/31/89 8/8/90
f 6/12/91 4/4/92 2/2/93 8/11/94
f 20/30/95 27/39/96 4/4/97 6/6/98
f 19/29/99 28/40/100 33/46/101 34/47/102
f 18/28/103 23/34/104 28/40/105 19/29/106
f 7/13/107 17/25/108 29/41/109 5/14/110
f 24/35/111 30/42/112 29/41/113 17/25/114
f 3/3/115 30/42/116 24/35/117 1/1/118
f 48/60/119 47/61/120 49/62/121 50/63/122
f 27/39/123 33/46/124 32/45/125 10/17/126
f 34/47/127 33/46/128 27/39/129 20/30/130
f 35/48/131 34/47/132 20/30/133 11/18/134
f 36/49/135 35/48/136 11/18/137 12/19/138
f 21/31/139 37/50/140 36/49/141 12/19/142
f 26/38/143 38/51/144 37/50/145 21/31/146
f 31/44/147 38/51/148 26/38/149 9/16/150
f 32/45/151 31/43/152 39/53/153 40/52/154
f 31/43/155 9/15/156 41/54/157 39/53/158
f 9/15/159 10/17/160 42/55/161 41/54/162
f 10/17/163 32/45/164 40/52/165 42/55/166
f 40/52/167 39/53/168 43/57/169 44/56/170
f 39/53/171 41/54/172 45/58/173 43/57/174
f 41/54/175 42/55/176 46/59/177 45/58/178
f 42/55/179 40/52/180 44/56/181 46/59/182
f 44/56/183 43/57/184 47/61/185 48/60/186
f 43/57/187 45/58/188 49/62/189 47/61/190
f 45/58/191 46/59/192 50/63/193 49/62/194
f 46/59/195 44/56/196 48/60/197 50/63/198
