# This file uses centimeters as units for non-parametric coordinates.

mtllib branch2_fix.mtl
g default
v -3.803150 -0.083758 0.201476
v 2.891393 0.051922 -0.665222
v -3.665785 0.284079 0.125082
v 2.856389 0.222908 -0.657980
v -3.665785 0.284079 -0.125082
v 2.856390 0.206523 -0.804426
v -3.803150 -0.083758 -0.195056
v 2.891393 0.030778 -0.864792
v -2.063744 -0.083758 0.201476
v -2.063744 0.284079 0.163562
v -2.063744 0.284079 -0.163562
v -2.063744 -0.083758 -0.195056
v 1.858721 0.263303 0.201476
v 1.858721 0.431670 0.163562
v 1.858721 0.431670 -0.041469
v 1.858721 0.224863 -0.072963
v 2.054698 0.232119 0.048652
v 1.991992 0.413631 0.048076
v 2.785104 -0.024425 0.719125
v 2.739929 0.146322 0.662940
v 2.785104 -0.025120 0.523228
v 2.739929 0.150964 0.541500
v 1.551685 0.256848 0.201476
v 1.551685 0.453569 0.163562
v 1.551685 0.453569 -0.041469
v 1.551685 0.228740 -0.072963
v -3.760553 0.149927 0.201476
v -3.760553 0.149927 -0.195056
v -2.063744 0.149927 -0.195056
v 1.551685 0.408604 -0.072963
v 1.858721 0.390309 -0.072963
v 2.891393 0.157607 -0.864792
v 2.891393 0.184612 -0.665259
v 2.054299 0.358259 0.048108
v 2.785104 0.106011 0.523228
v 2.785104 0.101798 0.719125
v 1.858721 0.397997 0.201476
v 1.551685 0.414225 0.201476
v -2.063744 0.149927 0.201476
v 1.858721 0.446564 0.061046
v 1.551685 0.483999 0.061046
v -2.063744 0.355909 0.000000
v 2.039218 0.384860 0.101928
v 2.031488 0.391098 -0.007744
v 1.950654 0.403135 0.214168
v 1.951884 0.410041 -0.084817
v -3.502198 0.309690 0.000000
vt 0.375000 0.000000
vt 0.625000 0.000000
vt 0.375000 0.250000
vt 0.625000 0.250000
vt 0.375000 0.500000
vt 0.625000 0.500000
vt 0.375000 0.750000
vt 0.625000 0.750000
vt 0.375000 1.000000
vt 0.625000 1.000000
vt 0.875000 0.000000
vt 0.875000 0.250000
vt 0.125000 0.000000
vt 0.125000 0.250000
vt 0.425000 0.000000
vt 0.425000 1.000000
vt 0.425000 0.250000
vt 0.425000 0.500000
vt 0.425000 0.750000
vt 0.565000 0.000000
vt 0.565000 1.000000
vt 0.565000 0.250000
vt 0.565000 0.500000
vt 0.565000 0.750000
vt 0.577000 0.000000
vt 0.577000 1.000000
vt 0.577000 0.250000
vt 0.565000 0.250000
vt 0.565000 0.000000
vt 0.577000 0.000000
vt 0.577000 0.250000
vt 0.551000 0.000000
vt 0.551000 1.000000
vt 0.551000 0.250000
vt 0.551000 0.500000
vt 0.551000 0.750000
vt 0.375000 0.200000
vt 0.125000 0.200000
vt 0.375000 0.550000
vt 0.425000 0.550000
vt 0.551000 0.550000
vt 0.565000 0.550000
vt 0.625000 0.550000
vt 0.875000 0.200000
vt 0.625000 0.200000
vt 0.577000 0.200000
vt 0.577000 0.200000
vt 0.565000 0.200000
vt 0.565000 0.200000
vt 0.551000 0.200000
vt 0.425000 0.200000
vt 0.565000 0.375000
vt 0.551000 0.375000
vt 0.425000 0.375000
vt 0.577000 0.250000
vt 0.579276 0.250000
vt 0.565000 0.250000
vt 0.571000 0.500000
vt 0.250000 0.250000
vt 0.375000 0.375000
vn 0.000000 0.000000 1.000000
vn 0.000000 0.000000 1.000000
vn 0.000000 0.000000 1.000000
vn 0.000000 0.000000 1.000000
vn -0.018376 0.950420 0.310425
vn -0.018376 0.950420 0.310425
vn -0.018376 0.950420 0.310425
vn -0.018376 0.950420 0.310425
vn 0.000000 0.000000 -1.000000
vn 0.000000 0.000000 -1.000000
vn 0.000000 0.000000 -1.000000
vn 0.000000 0.000000 -1.000000
vn 0.000000 -1.000000 0.000000
vn 0.000000 -1.000000 0.000000
vn 0.000000 -1.000000 0.000000
vn 0.000000 -1.000000 0.000000
vn 1.000000 -0.000000 0.000002
vn 1.000000 -0.000000 0.000002
vn 1.000000 -0.000000 0.000002
vn 1.000000 -0.000000 0.000002
vn -0.000000 0.000000 1.000000
vn -0.000000 0.000000 1.000000
vn -0.000000 0.000000 1.000000
vn -0.000000 0.000000 1.000000
vn -0.041408 0.932637 0.358432
vn -0.041408 0.932637 0.358432
vn -0.041408 0.932637 0.358432
vn -0.041408 0.932637 0.358432
vn 0.033751 0.000000 -0.999430
vn 0.033751 0.000000 -0.999430
vn 0.033751 0.000000 -0.999430
vn 0.033751 0.000000 -0.999430
vn 0.089179 -0.995143 0.041687
vn 0.089179 -0.995143 0.041687
vn 0.089179 -0.995143 0.041687
vn 0.089179 -0.995143 0.041687
vn 1.000000 0.000000 -0.000001
vn 1.000000 0.000000 -0.000001
vn 1.000000 0.000000 -0.000001
vn 1.000000 0.000000 -0.000001
vn -0.608487 0.000001 -0.793564
vn -0.608487 0.000001 -0.793564
vn -0.608487 0.000001 -0.793564
vn -0.608487 0.000001 -0.793564
vn -0.081484 -0.986902 0.139228
vn -0.081484 -0.986902 0.139228
vn -0.081484 -0.986902 0.139228
vn -0.081484 -0.986902 0.139228
vn -0.081484 -0.986902 0.139228
vn 0.649170 0.002710 0.760638
vn 0.649170 0.002710 0.760638
vn 0.649170 0.002710 0.760639
vn 0.649170 0.002710 0.760638
vn -0.487796 0.000000 0.872958
vn -0.487796 0.000000 0.872958
vn -0.487796 0.000000 0.872958
vn -0.487796 0.000000 0.872958
vn -0.275298 -0.959018 -0.067043
vn -0.275298 -0.959018 -0.067043
vn -0.275298 -0.959018 -0.067043
vn -0.275298 -0.959018 -0.067043
vn 0.544724 -0.000930 -0.838615
vn 0.544724 -0.000930 -0.838615
vn 0.544724 -0.000930 -0.838615
vn 0.544724 -0.000930 -0.838615
vn 0.284334 0.957319 0.051907
vn 0.284334 0.957319 0.051907
vn 0.284334 0.957319 0.051907
vn 0.284334 0.957319 0.051907
vn 0.000000 0.000000 1.000000
vn 0.000000 0.000000 1.000000
vn 0.000000 0.000000 1.000000
vn 0.000000 0.000000 1.000000
vn 0.093930 0.972110 0.214893
vn 0.093930 0.972110 0.214893
vn 0.093930 0.972110 0.214893
vn 0.093930 0.972110 0.214893
vn 0.000000 0.000000 -1.000000
vn 0.000000 0.000000 -1.000000
vn 0.000000 0.000000 -1.000000
vn 0.000000 0.000000 -1.000000
vn 0.004168 -0.992722 0.120360
vn 0.004168 -0.992722 0.120360
vn 0.004168 -0.992722 0.120360
vn 0.004168 -0.992722 0.120360
vn -0.154670 0.987966 0.000000
vn -0.154670 0.987966 0.000000
vn -0.154670 0.987966 0.000000
vn -0.010895 0.357072 -0.934013
vn -0.010895 0.357072 -0.934013
vn -0.010895 0.357072 -0.934013
vn -0.010895 0.357072 -0.934013
vn 0.012213 0.331713 -0.943301
vn 0.012213 0.331714 -0.943301
vn 0.012213 0.331713 -0.943301
vn 0.012213 0.331713 -0.943301
vn 0.038552 0.588981 -0.807227
vn 0.038552 0.588981 -0.807227
vn 0.038552 0.588980 -0.807227
vn 0.038552 0.588980 -0.807227
vn -0.223727 0.590445 -0.775449
vn -0.223727 0.590445 -0.775449
vn -0.223727 0.590445 -0.775449
vn 0.744704 0.662207 -0.083048
vn 0.744704 0.662207 -0.083048
vn 0.744704 0.662207 -0.083048
vn 0.744704 0.662207 -0.083048
vn 0.655039 0.737158 0.165897
vn 0.655039 0.737158 0.165897
vn 0.655039 0.737158 0.165897
vn 0.499294 0.786555 -0.363368
vn 0.499294 0.786555 -0.363368
vn 0.499294 0.786555 -0.363368
vn 0.499294 0.786555 -0.363368
vn 0.699287 0.714562 0.019938
vn 0.699287 0.714562 0.019938
vn 0.699287 0.714562 0.019938
vn 0.699287 0.714562 0.019938
vn -0.145012 0.725613 0.672650
vn -0.145012 0.725613 0.672650
vn -0.145012 0.725613 0.672650
vn -0.145012 0.725613 0.672650
vn 0.044680 0.719607 0.692943
vn 0.044680 0.719607 0.692943
vn 0.044680 0.719607 0.692943
vn 0.044680 0.719607 0.692943
vn -0.024018 0.400360 0.916043
vn -0.024018 0.400360 0.916043
vn -0.024018 0.400360 0.916043
vn -0.024018 0.400360 0.916043
vn -0.010715 0.395126 0.918565
vn -0.010715 0.395126 0.918564
vn -0.010715 0.395126 0.918565
vn -0.010715 0.395126 0.918565
vn 0.224658 0.964314 -0.140100
vn 0.224658 0.964314 -0.140100
vn 0.224658 0.964314 -0.140100
vn 0.093930 0.972110 -0.214893
vn 0.093930 0.972110 -0.214893
vn 0.093930 0.972110 -0.214893
vn 0.093930 0.972110 -0.214893
vn -0.029316 0.933037 -0.358585
vn -0.029316 0.933037 -0.358585
vn -0.029316 0.933037 -0.358585
vn -0.029316 0.933037 -0.358585
vn 0.653458 0.735184 -0.180269
vn 0.653458 0.735184 -0.180269
vn 0.653458 0.735184 -0.180269
vn 0.518196 0.727841 0.449133
vn 0.518196 0.727841 0.449133
vn 0.518196 0.727841 0.449133
vn 0.518196 0.727841 0.449133
vn 0.250306 0.958108 0.139198
vn 0.250306 0.958108 0.139198
vn 0.250306 0.958108 0.139198
vn 0.171892 0.983848 -0.049957
vn 0.171892 0.983848 -0.049957
vn 0.171892 0.983848 -0.049957
vn 0.171892 0.983848 -0.049957
vn -0.018376 0.950420 -0.310425
vn -0.018376 0.950420 -0.310425
vn -0.018376 0.950420 -0.310425
vn -0.018376 0.950420 -0.310425
vn -0.983789 0.179330 0.000000
vn -0.983789 0.179330 0.000000
vn -0.983789 0.179330 0.000000
vn -0.983789 0.179330 0.000000
vn -0.816761 0.576977 -0.000000
vn -0.816761 0.576977 -0.000000
vn -0.816761 0.576977 -0.000000
vn -0.816761 0.576977 -0.000000
vn 0.290913 0.947560 0.132284
vn 0.290913 0.947560 0.132284
vn 0.290913 0.947560 0.132284
vn 0.290913 0.947560 0.132284
vn 0.245978 0.964074 -0.100280
vn 0.245978 0.964074 -0.100280
vn 0.245978 0.964074 -0.100280
vn 0.245978 0.964074 -0.100280
vn -0.132296 0.741109 0.658222
vn -0.132296 0.741109 0.658222
vn -0.132296 0.741109 0.658222
vn -0.324019 0.713513 -0.621217
vn -0.324019 0.713513 -0.621217
vn -0.324019 0.713513 -0.621217
vn -0.324019 0.713513 -0.621217
s off
g branch2 branches flora
usemtl branch2SG
f 1/1/1 9/15/2 39/51/3 27/37/4
f 3/3/5 10/17/6 42/54/7 47/60/8
f 28/39/9 29/40/10 12/19/11 7/7/12
f 7/7/13 12/19/14 9/16/15 1/9/16
f 2/2/17 8/11/18 32/44/19 33/45/20
f 38/50/21 39/51/22 9/15/23 23/32/24
f 41/53/25 42/54/26 10/17/27 24/34/28
f 12/19/29 29/40/30 30/41/31 26/36/32
f 9/16/33 12/19/34 26/36/35 23/33/36
f 35/47/37 36/48/38 19/29/39 21/30/40
f 16/24/41 31/42/42 32/43/43 8/8/44
f 17/26/45 13/21/46 16/24/47 8/8/48 2/10/49
f 33/45/50 34/46/51 17/25/52 2/2/53
f 36/48/54 37/49/55 13/20/56 19/29/57
f 13/20/58 17/25/59 21/30/60 19/29/61
f 17/25/62 34/46/63 35/47/64 21/30/65
f 20/28/66 22/31/67 43/55/68 45/57/69
f 37/49/70 38/50/71 23/32/72 13/20/73
f 40/52/74 41/53/75 24/34/76 14/22/77
f 26/36/78 30/41/79 31/42/80 16/24/81
f 23/33/82 26/36/83 16/24/84 13/21/85
f 5/14/86 3/3/87 47/59/88
f 5/5/89 11/18/90 29/40/91 28/39/92
f 30/41/93 29/40/94 11/18/95 25/35/96
f 31/42/97 30/41/98 25/35/99 15/23/100
f 31/42/101 15/23/102 46/58/103
f 33/45/104 32/44/105 6/12/106 4/4/107
f 44/56/108 18/27/109 34/46/110
f 35/47/111 34/46/112 43/55/113 22/31/114
f 20/28/115 36/48/116 35/47/117 22/31/118
f 45/57/119 37/49/120 36/48/121 20/28/122
f 24/34/123 38/50/124 37/49/125 14/22/126
f 10/17/127 39/51/128 38/50/129 24/34/130
f 27/37/131 39/51/132 10/17/133 3/3/134
f 18/27/135 15/23/136 40/52/137
f 25/35/138 41/53/139 40/52/140 15/23/141
f 11/18/142 42/54/143 41/53/144 25/35/145
f 34/46/146 18/27/147 43/55/148
f 44/56/149 34/46/150 33/45/151 4/4/152
f 14/22/153 18/27/154 40/52/155
f 6/6/156 46/58/157 44/56/158 4/4/159
f 47/60/160 42/54/161 11/18/162 5/5/163
f 1/1/164 27/37/165 28/38/166 7/13/167
f 27/37/168 3/3/169 5/14/170 28/38/171
f 43/55/172 18/27/173 14/22/174 45/57/175
f 44/56/176 46/58/177 15/23/178 18/27/179
f 14/22/180 37/49/181 45/57/182
f 31/42/183 46/58/184 6/6/185 32/43/186
