# This file uses centimeters as units for non-parametric coordinates.

mtllib Placeholder.mtl
g default
v -0.242792 1.351533 -0.195854
v -0.242792 1.351533 0.195854
v 0.000000 1.045119 -0.000000
v -0.508809 1.313157 0.000000
vt 0.644479 0.025591
vt 0.971154 0.027153
vt 0.806254 0.353046
vt 0.807816 0.026372
vn 0.466079 0.884743 0.000000
vn 0.466079 0.884743 0.000000
vn 0.362810 0.688712 -0.627730
vn 0.362810 0.688712 0.627730
s 1
g pPlane3 group1
usemtl lambert1SG
f 3/3/1 4/4/2 2/2/3
f 3/3/1 1/1/4 4/4/2
g default
v -0.042709 0.865880 -0.105709
v -0.113733 0.865880 0.007953
v -0.027582 0.865880 0.110624
v 0.096686 0.865880 0.060416
v 0.087337 0.865880 -0.073284
v -0.060400 0.948608 -0.149494
v -0.160842 0.948608 0.011247
v -0.039006 0.948608 0.156446
v 0.136735 0.948608 0.085441
v 0.123513 0.948608 -0.103640
v -0.042709 1.031335 -0.105709
v -0.113733 1.031335 0.007953
v -0.027582 1.031335 0.110624
v 0.096686 1.031335 0.060416
v 0.087337 1.031335 -0.073284
v 0.000000 0.831613 0.000000
v 0.000000 1.065602 0.000000
vt 0.407181 0.065370
vt 0.453973 0.065370
vt 0.500765 0.065370
vt 0.547556 0.065370
vt 0.594348 0.065370
vt 0.641140 0.065370
vt 0.407181 0.123860
vt 0.453973 0.123860
vt 0.500765 0.123860
vt 0.547556 0.123860
vt 0.594348 0.123860
vt 0.641140 0.123860
vt 0.407181 0.182349
vt 0.453973 0.182349
vt 0.500765 0.182349
vt 0.547556 0.182349
vt 0.594348 0.182349
vt 0.641140 0.182349
vt 0.430577 0.006880
vt 0.477369 0.006880
vt 0.524160 0.006880
vt 0.570952 0.006880
vt 0.617744 0.006880
vt 0.430577 0.240839
vt 0.477369 0.240839
vt 0.524160 0.240839
vt 0.570952 0.240839
vt 0.617744 0.240839
vn -0.769910 -0.419271 -0.481093
vn -0.769910 -0.419271 -0.481093
vn -0.769910 -0.419271 -0.481093
vn -0.769910 -0.419271 -0.481093
vn -0.695462 -0.419271 0.583562
vn -0.695462 -0.419271 0.583562
vn -0.695462 -0.419271 0.583562
vn -0.695462 -0.419271 0.583562
vn 0.340091 -0.419271 0.841754
vn 0.340091 -0.419271 0.841754
vn 0.340091 -0.419271 0.841754
vn 0.340091 -0.419271 0.841754
vn 0.905650 -0.419271 -0.063329
vn 0.905650 -0.419271 -0.063329
vn 0.905650 -0.419271 -0.063329
vn 0.905650 -0.419271 -0.063329
vn 0.219632 -0.419271 -0.880894
vn 0.219632 -0.419271 -0.880894
vn 0.219632 -0.419271 -0.880894
vn 0.219632 -0.419271 -0.880894
vn -0.769910 0.419271 -0.481093
vn -0.769910 0.419271 -0.481093
vn -0.769910 0.419271 -0.481093
vn -0.769910 0.419271 -0.481093
vn -0.695462 0.419271 0.583562
vn -0.695462 0.419271 0.583562
vn -0.695462 0.419271 0.583562
vn -0.695462 0.419271 0.583562
vn 0.340091 0.419271 0.841754
vn 0.340091 0.419271 0.841754
vn 0.340091 0.419271 0.841754
vn 0.340091 0.419271 0.841754
vn 0.905650 0.419271 -0.063329
vn 0.905650 0.419271 -0.063329
vn 0.905650 0.419271 -0.063329
vn 0.905650 0.419271 -0.063329
vn 0.219632 0.419271 -0.880894
vn 0.219632 0.419271 -0.880894
vn 0.219632 0.419271 -0.880894
vn 0.219632 0.419271 -0.880894
vn -0.295338 -0.937400 -0.184548
vn -0.295338 -0.937400 -0.184547
vn -0.295338 -0.937400 -0.184548
vn -0.266780 -0.937399 0.223855
vn -0.266780 -0.937399 0.223855
vn -0.266780 -0.937399 0.223855
vn 0.130459 -0.937400 0.322897
vn 0.130459 -0.937400 0.322897
vn 0.130459 -0.937399 0.322897
vn 0.347408 -0.937400 -0.024293
vn 0.347408 -0.937400 -0.024293
vn 0.347408 -0.937400 -0.024293
vn 0.084251 -0.937400 -0.337911
vn 0.084251 -0.937400 -0.337911
vn 0.084251 -0.937400 -0.337911
vn -0.295338 0.937400 -0.184548
vn -0.295338 0.937400 -0.184548
vn -0.295338 0.937400 -0.184548
vn -0.266780 0.937399 0.223855
vn -0.266780 0.937400 0.223855
vn -0.266780 0.937400 0.223855
vn 0.130459 0.937400 0.322897
vn 0.130459 0.937400 0.322897
vn 0.130459 0.937399 0.322897
vn 0.347408 0.937400 -0.024293
vn 0.347408 0.937400 -0.024293
vn 0.347408 0.937400 -0.024293
vn 0.084251 0.937400 -0.337911
vn 0.084251 0.937400 -0.337911
vn 0.084251 0.937400 -0.337911
s off
g pSphere2
usemtl lambert1SG
f 5/5/5 6/6/6 11/12/7 10/11/8
f 6/6/9 7/7/10 12/13/11 11/12/12
f 7/7/13 8/8/14 13/14/15 12/13/16
f 8/8/17 9/9/18 14/15/19 13/14/20
f 9/9/21 5/10/22 10/16/23 14/15/24
f 10/11/25 11/12/26 16/18/27 15/17/28
f 11/12/29 12/13/30 17/19/31 16/18/32
f 12/13/33 13/14/34 18/20/35 17/19/36
f 13/14/37 14/15/38 19/21/39 18/20/40
f 14/15/41 10/16/42 15/22/43 19/21/44
f 6/6/45 5/5/46 20/23/47
f 7/7/48 6/6/49 20/24/50
f 8/8/51 7/7/52 20/25/53
f 9/9/54 8/8/55 20/26/56
f 5/10/57 9/9/58 20/27/59
f 15/17/60 16/18/61 21/28/62
f 16/18/63 17/19/64 21/29/65
f 17/19/66 18/20/67 21/30/68
f 18/20/69 19/21/70 21/31/71
f 19/21/72 15/22/73 21/32/74
g default
v 0.218508 -0.595863 -0.672499
v -0.572061 -0.595863 -0.415627
v -0.572061 -0.595863 0.415627
v 0.218508 -0.595863 0.672499
v 0.707107 -0.595863 0.000000
v 0.309017 0.000000 -0.951057
v -0.809017 0.000000 -0.587785
v -0.809017 0.000000 0.587785
v 0.309017 0.000000 0.951057
v 1.000000 0.000000 0.000000
v 0.218508 0.595863 -0.672499
v -0.572061 0.595863 -0.415627
v -0.572061 0.595863 0.415627
v 0.218508 0.595863 0.672499
v 0.707107 0.595863 0.000000
v 0.000000 -0.842677 0.000000
v 0.000000 0.842677 0.000000
vt 0.285287 0.129519
vt 0.301103 0.186552
vt 0.206742 0.170207
vt 0.215735 0.008486
vt 0.299778 0.306128
vt 0.207115 0.322060
vt 0.340270 0.430081
vt 0.101027 0.243563
vt 0.285287 0.129519
vt 0.101027 0.243563
vt 0.114079 0.186139
vt 0.073587 0.062185
vt 0.112754 0.305715
vt 0.130669 0.360693
vt 0.130669 0.360693
vt 0.211297 0.015064
vt 0.204658 0.475149
vt 0.281919 0.362876
vt 0.134036 0.127337
vt 0.314928 0.246649
vt 0.071655 0.411575
vt 0.008204 0.242104
vt 0.204658 0.475149
vt 0.281919 0.362876
vt 0.405653 0.250162
vt 0.211297 0.015064
vt 0.134036 0.127337
vt 0.342202 0.080691
vt 0.198122 0.483781
vt 0.314928 0.246649
vn -0.287145 -0.369522 -0.883742
vn -0.287145 -0.369522 -0.883742
vn -0.287145 -0.369522 -0.883742
vn -0.287145 -0.369522 -0.883742
vn -0.929222 -0.369523 -0.000000
vn -0.929222 -0.369523 -0.000000
vn -0.929222 -0.369523 -0.000000
vn -0.929222 -0.369523 -0.000000
vn -0.287145 -0.369522 0.883742
vn -0.287145 -0.369522 0.883743
vn -0.287145 -0.369522 0.883742
vn -0.287145 -0.369522 0.883743
vn 0.751756 -0.369522 0.546183
vn 0.751756 -0.369522 0.546183
vn 0.751756 -0.369522 0.546183
vn 0.751756 -0.369522 0.546183
vn 0.751756 -0.369522 -0.546183
vn 0.751756 -0.369522 -0.546183
vn 0.751756 -0.369522 -0.546183
vn 0.751756 -0.369522 -0.546183
vn -0.287145 0.369522 -0.883742
vn -0.287145 0.369522 -0.883742
vn -0.287145 0.369522 -0.883742
vn -0.287145 0.369522 -0.883742
vn -0.929222 0.369523 -0.000000
vn -0.929222 0.369523 -0.000000
vn -0.929222 0.369523 -0.000000
vn -0.929222 0.369523 -0.000000
vn -0.287145 0.369522 0.883743
vn -0.287145 0.369522 0.883742
vn -0.287145 0.369522 0.883743
vn -0.287145 0.369522 0.883742
vn 0.751756 0.369522 0.546183
vn 0.751756 0.369522 0.546183
vn 0.751756 0.369522 0.546183
vn 0.751756 0.369522 0.546183
vn 0.751756 0.369522 -0.546183
vn 0.751756 0.369522 -0.546183
vn 0.751756 0.369522 -0.546183
vn 0.751756 0.369522 -0.546183
vn -0.122417 -0.918186 -0.376760
vn -0.122417 -0.918186 -0.376760
vn -0.122417 -0.918186 -0.376760
vn -0.396149 -0.918186 0.000000
vn -0.396149 -0.918186 0.000000
vn -0.396149 -0.918186 0.000000
vn -0.122417 -0.918186 0.376760
vn -0.122417 -0.918186 0.376760
vn -0.122417 -0.918186 0.376760
vn 0.320492 -0.918186 0.232851
vn 0.320492 -0.918186 0.232851
vn 0.320492 -0.918186 0.232851
vn 0.320491 -0.918186 -0.232851
vn 0.320491 -0.918186 -0.232851
vn 0.320491 -0.918186 -0.232851
vn -0.122417 0.918186 -0.376760
vn -0.122417 0.918186 -0.376760
vn -0.122417 0.918186 -0.376760
vn -0.396149 0.918186 0.000000
vn -0.396149 0.918186 0.000000
vn -0.396149 0.918186 0.000000
vn -0.122417 0.918186 0.376760
vn -0.122417 0.918186 0.376760
vn -0.122417 0.918186 0.376760
vn 0.320491 0.918186 0.232851
vn 0.320491 0.918186 0.232851
vn 0.320491 0.918186 0.232851
vn 0.320491 0.918186 -0.232851
vn 0.320491 0.918186 -0.232851
vn 0.320491 0.918186 -0.232851
s off
g pSphere1
usemtl standardSurface2SG
f 22/60/75 23/34/76 28/35/77 27/36/78
f 23/34/79 24/37/80 29/38/81 28/35/82
f 24/37/83 25/39/84 30/61/85 29/38/86
f 25/59/87 26/41/88 31/52/89 30/40/90
f 26/51/91 22/33/92 27/62/93 31/42/94
f 27/36/95 28/35/96 33/43/97 32/44/98
f 28/35/99 29/38/100 34/45/101 33/43/102
f 29/38/103 30/61/104 35/53/105 34/45/106
f 30/40/107 31/52/108 36/50/109 35/46/110
f 31/42/111 27/62/112 32/56/113 36/47/114
f 23/34/115 22/60/116 37/57/117
f 24/37/118 23/34/119 37/57/120
f 25/39/121 24/37/122 37/57/123
f 26/41/124 25/59/125 37/58/126
f 22/33/127 26/51/128 37/48/129
f 32/44/130 33/43/131 38/54/132
f 33/43/133 34/45/134 38/54/135
f 34/45/136 35/53/137 38/54/138
f 35/46/139 36/50/140 38/49/141
f 36/47/142 32/56/143 38/55/144
g default
v 0.242791 1.351533 0.195854
v 0.242791 1.351533 -0.195854
v -0.000000 1.045119 0.000000
v 0.508809 1.313157 0.000000
vt 0.644479 0.025591
vt 0.971154 0.027153
vt 0.806254 0.353046
vt 0.807816 0.026372
vn -0.466079 0.884743 0.000000
vn -0.466079 0.884743 0.000000
vn -0.362811 0.688712 0.627729
vn -0.362810 0.688712 -0.627730
s 1
g group1 pPlane2
usemtl lambert1SG
f 41/65/145 42/66/146 40/64/147
f 41/65/145 39/63/148 42/66/146
g default
v -0.206897 1.338253 0.215056
v 0.182632 1.366828 0.271863
v -0.000000 1.045119 0.000000
v -0.043962 1.310839 0.502489
vt 0.644479 0.025591
vt 0.971154 0.027153
vt 0.806254 0.353046
vt 0.807816 0.026372
vn 0.003284 0.884123 -0.467244
vn -0.052820 0.880857 -0.470426
vn -0.593719 0.688712 -0.416140
vn 0.656963 0.688711 -0.306719
s 1
g group1 pPlane5
usemtl lambert1SG
f 45/69/149 46/70/150 44/68/151
f 45/69/149 43/67/152 46/70/150
g default
v 0.206896 1.338253 -0.215055
v -0.182632 1.366829 -0.271864
v -0.000000 1.045119 0.000000
v 0.043962 1.310839 -0.502489
vt 0.644479 0.025591
vt 0.971154 0.027153
vt 0.806254 0.353046
vt 0.807816 0.026372
vn -0.003282 0.884122 0.467244
vn 0.052824 0.880857 0.470426
vn 0.593720 0.688712 0.416140
vn -0.656962 0.688712 0.306719
s 1
g group1 pPlane4
usemtl lambert1SG
f 49/73/153 50/74/154 48/72/155
f 49/73/153 47/71/156 50/74/154
