# This file uses centimeters as units for non-parametric coordinates.

mtllib stone_fix.mtl
g default
v -0.174329 -0.093105 0.174330
v -0.404613 0.002282 0.404613
v -0.500000 0.232599 0.500000
v 0.500000 0.232599 0.500000
v 0.404613 0.002282 0.404613
v 0.174329 -0.093105 0.174330
v -0.404613 0.462915 0.404613
v -0.174329 0.558302 0.174330
v 0.174329 0.558302 0.174330
v 0.404613 0.462915 0.404613
v -0.404613 0.232599 -0.404613
v -0.500000 0.232599 -0.174330
v -0.404613 0.462915 -0.174330
v -0.174329 0.558302 -0.174330
v -0.174329 0.462915 -0.404613
v -0.174329 0.232599 -0.500000
v 0.174329 0.558302 -0.174330
v 0.404613 0.462915 -0.404613
v 0.500000 0.232599 -0.500000
v -0.404613 0.002282 -0.174330
v -0.174329 0.002282 -0.404613
v -0.174329 -0.093105 -0.174330
v 0.174329 -0.093105 -0.174330
v 0.404613 0.002282 -0.404613
v -0.362290 0.420591 -0.362289
v -0.362290 0.044606 -0.362289
vt 0.456418 0.918582
vt 0.206418 0.125000
vt 0.543582 0.831418
vt 0.456418 0.625000
vt 0.625000 0.625000
vt 0.625000 0.125000
vt 0.375000 0.125000
vt 0.456418 0.331418
vt 0.543582 0.331418
vt 0.543582 0.418582
vt 0.456418 0.831418
vt 0.875000 0.125000
vt 0.456418 0.418582
vt 0.543582 0.918582
vt 0.375000 0.000000
vt 0.375000 1.000000
vt 0.625000 1.000000
vt 0.625000 0.000000
vt 0.375000 0.250000
vt 0.625000 0.250000
vt 0.125000 0.125000
vt 0.375000 0.625000
vt 0.375000 0.436466
vt 0.188534 0.250000
vt 0.453058 0.513595
vt 0.625000 0.500000
vt 0.875000 0.250000
vt 0.188534 -0.000000
vt 0.375000 0.813534
vt 0.449895 0.734824
vt 0.875000 0.000000
vt 0.625000 0.750000
vt 0.125000 0.250000
vt 0.375000 0.500000
vt 0.125000 0.000000
vt 0.375000 0.750000
vn 0.000000 0.000000 1.000000
vn 0.000000 -0.382636 0.923899
vn 0.000000 -0.382636 0.923899
vn 0.000000 0.000000 1.000000
vn 0.000000 -0.923880 0.382683
vn -0.133972 -0.976773 0.167231
vn 0.154386 -0.975874 0.154386
vn 0.000000 -0.923880 0.382683
vn -0.133972 0.976773 0.167231
vn 0.000000 0.923879 0.382684
vn 0.000000 0.923879 0.382684
vn 0.154386 0.975874 0.154386
vn 0.000000 0.382636 0.923899
vn 0.000000 0.000000 1.000000
vn 0.000000 0.000000 1.000000
vn 0.000000 0.382636 0.923899
vn -0.152847 -0.976358 -0.152847
vn -0.092371 -0.924141 -0.370718
vn 0.000000 -0.923880 -0.382684
vn 0.167231 -0.976773 -0.133971
vn -0.073633 -0.373367 -0.924757
vn -0.078070 0.000000 -0.996948
vn 0.000000 0.000000 -1.000000
vn 0.000000 -0.382636 -0.923899
vn -0.133972 0.976773 0.167231
vn 0.154386 0.975874 0.154386
vn 0.167231 0.976773 -0.133972
vn -0.152847 0.976358 -0.152847
vn -0.152847 -0.976358 -0.152847
vn 0.167231 -0.976773 -0.133971
vn 0.154386 -0.975874 0.154386
vn -0.133972 -0.976773 0.167231
vn -0.133972 -0.976773 0.167231
vn -0.382683 -0.923880 0.000000
vn -0.370717 -0.924141 -0.092371
vn -0.152847 -0.976358 -0.152847
vn -0.923899 -0.382637 0.000000
vn -1.000000 0.000000 0.000000
vn -0.996948 0.000000 -0.078070
vn -0.924757 -0.373367 -0.073633
vn -1.000000 0.000000 0.000000
vn -0.923899 0.382637 0.000000
vn -0.924757 0.373367 -0.073633
vn -0.996948 0.000000 -0.078070
vn -0.382683 0.923880 0.000000
vn -0.133972 0.976773 0.167231
vn -0.152847 0.976358 -0.152847
vn -0.370717 0.924141 -0.092371
vn 0.154386 0.975874 0.154386
vn 0.382684 0.923880 0.000000
vn 0.382684 0.923880 0.000000
vn 0.167231 0.976773 -0.133972
vn 0.923899 0.382637 0.000000
vn 1.000000 0.000000 0.000000
vn 1.000000 0.000000 0.000000
vn 0.923899 0.382637 0.000000
vn -0.078070 0.000000 -0.996948
vn -0.073633 0.373367 -0.924757
vn 0.000000 0.382636 -0.923899
vn 0.000000 0.000000 -1.000000
vn -0.092371 0.924141 -0.370718
vn -0.152847 0.976358 -0.152847
vn 0.167231 0.976773 -0.133972
vn 0.000000 0.923879 -0.382684
vn 1.000000 0.000000 0.000000
vn 0.923899 -0.382637 0.000000
vn 0.923899 -0.382637 0.000000
vn 1.000000 0.000000 0.000000
vn 0.382683 -0.923880 0.000000
vn 0.154386 -0.975874 0.154386
vn 0.167231 -0.976773 -0.133971
vn 0.382683 -0.923880 0.000000
vn -0.073633 0.373367 -0.924757
vn -0.078070 0.000000 -0.996948
vn -0.343970 0.000000 -0.938981
vn -0.325271 0.325225 -0.887935
vn -0.938981 0.000000 -0.343970
vn -0.996948 0.000000 -0.078070
vn -0.924757 0.373367 -0.073633
vn -0.887935 0.325225 -0.325271
vn -0.370717 0.924141 -0.092371
vn -0.152847 0.976358 -0.152847
vn -0.092371 0.924141 -0.370718
vn -0.325270 0.887918 -0.325270
vn -0.092371 -0.924141 -0.370718
vn -0.152847 -0.976358 -0.152847
vn -0.370717 -0.924141 -0.092371
vn -0.325270 -0.887918 -0.325270
vn -0.924757 -0.373367 -0.073633
vn -0.996948 0.000000 -0.078070
vn -0.938981 0.000000 -0.343970
vn -0.887935 -0.325225 -0.325271
vn -0.343970 0.000000 -0.938981
vn -0.078070 0.000000 -0.996948
vn -0.073633 -0.373367 -0.924757
vn -0.325271 -0.325225 -0.887935
s off
g pCube9 stone flora
usemtl pCube9SG
f 3/7/1 2/15/2 5/18/3 4/6/4
f 2/16/5 1/1/6 6/14/7 5/17/8
f 8/8/9 7/19/10 10/20/11 9/9/12
f 7/19/13 3/7/14 4/6/15 10/20/16
f 22/11/17 21/30/18 24/32/19 23/3/20
f 21/30/21 16/4/22 19/5/23 24/32/24
f 8/8/25 9/9/26 17/10/27 14/13/28
f 22/11/29 23/3/30 6/14/31 1/1/32
f 1/1/33 2/16/34 20/29/35 22/11/36
f 2/15/37 3/7/38 12/2/39 20/28/40
f 3/7/41 7/19/42 13/24/43 12/2/44
f 7/19/45 8/8/46 14/13/47 13/23/48
f 9/9/49 10/20/50 18/26/51 17/10/52
f 10/20/53 4/6/54 19/12/55 18/27/56
f 16/4/57 15/25/58 18/26/59 19/5/60
f 15/25/61 14/13/62 17/10/63 18/26/64
f 4/6/65 5/18/66 24/31/67 19/12/68
f 5/17/69 6/14/70 23/3/71 24/32/72
f 15/25/73 16/4/74 11/22/75 25/34/76
f 11/21/77 12/2/78 13/24/79 25/33/80
f 13/23/81 14/13/82 15/25/83 25/34/84
f 21/30/85 22/11/86 20/29/87 26/36/88
f 20/28/89 12/2/90 11/21/91 26/35/92
f 11/22/93 16/4/94 21/30/95 26/36/96
